<svg xmlns="http://www.w3.org/2000/svg" xmlns:xlink="http://www.w3.org/1999/xlink" xmlns:lucid="lucid" width="2365" height="1572"><g transform="translate(821 1091)" lucid:page-tab-id="0_0"><path d="M-1000-5000h6500V500h-6500z" fill="#fff"/><path d="M260-534a6 6 0 0 1 6-6h208a6 6 0 0 1 6 6v48a6 6 0 0 1-6 6H266a6 6 0 0 1-6-6z" stroke="#000" stroke-width="4" fill="#edf5ff"/><use xlink:href="#a" transform="matrix(1,0,0,1,265,-535) translate(80.20616319444444 34.02777777777778)"/><path d="M68-284a6 6 0 0 1 6-6h208a6 6 0 0 1 6 6v48a6 6 0 0 1-6 6H74a6 6 0 0 1-6-6z" stroke="#000" stroke-width="4" fill="#edf5ff"/><use xlink:href="#b" transform="matrix(1,0,0,1,80.00427293426253,-278) translate(67.75368923611111 26.02777777777778)"/><path d="M940-539a6 6 0 0 1 6-6h208a6 6 0 0 1 6 6v48a6 6 0 0 1-6 6H946a6 6 0 0 1-6-6z" stroke="#000" stroke-width="4" fill="#edf5ff"/><use xlink:href="#c" transform="matrix(1,0,0,1,952,-533) translate(57.86328125000001 26.02777777777778)"/><path d="M228 126a6 6 0 0 1 6-6h208a6 6 0 0 1 6 6v48a6 6 0 0 1-6 6H234a6 6 0 0 1-6-6z" stroke="#000" stroke-width="4" fill="#edf5ff"/><use xlink:href="#d" transform="matrix(1,0,0,1,240.00427293426264,132) translate(72.84266493055556 26.02777777777778)"/><path d="M200-766c11.05 0 20 8.95 20 20 0 11.04-8.95 20-20 20H100c-11.05 0-20-8.96-20-20 0-11.05 8.95-20 20-20z" stroke="#000" stroke-width="2" fill="#fff"/><use xlink:href="#e" transform="matrix(1,0,0,1,84.99999999999989,-761.0043763921594) translate(26.973315972222228 23.40277777777778)"/><path d="M261.3-540.98v-33.5a6 6 0 0 0-6-6h-5.47a6 6 0 0 1-6-6V-740a6 6 0 0 0-6-6h-.45" stroke="#3a414a" fill="none"/><path d="M261.77-540.77l-.48.3-.48.4v-.92h.95z" stroke="#3a414a" stroke-width=".05" fill="#3a414a"/><path d="M222.62-746l14.26-4.64v9.27z" stroke="#3a414a" fill="#3a414a"/><path d="M320-881.48c11.05 0 20 8.95 20 20 0 11.04-8.95 20-20 20H220c-11.05 0-20-8.96-20-20 0-11.05 8.95-20 20-20z" stroke="#000" stroke-width="2" fill="#fff"/><use xlink:href="#f" transform="matrix(1,0,0,1,204.9999999999999,-876.481481481482) translate(37.17296875 23.40277777777778)"/><path d="M403.2-941.48c11.06 0 20 8.95 20 20 0 11.04-8.94 20-20 20h-100c-11.04 0-20-8.96-20-20 0-11.05 8.96-20 20-20z" stroke="#000" stroke-width="2" fill="#fff"/><use xlink:href="#g" transform="matrix(1,0,0,1,288.21017151205564,-936.481481481482) translate(13.768020833333333 23.40277777777778)"/><path d="M280-821.48c11.05 0 20 8.95 20 20 0 11.04-8.95 20-20 20H180c-11.05 0-20-8.96-20-20 0-11.05 8.95-20 20-20z" stroke="#000" stroke-width="2" fill="#fff"/><use xlink:href="#h" transform="matrix(1,0,0,1,164.9999999999999,-816.481481481482) translate(35.99024305555556 23.40277777777778)"/><path d="M324.9-542.5v-282.3" stroke="#3a414a" fill="none"/><path d="M325.36-542h-.95v-.5h.96z" stroke="#3a414a" stroke-width=".05" fill="#3a414a"/><path d="M324.9-839.58l4.62 14.27h-9.27z" stroke="#3a414a" fill="#3a414a"/><path d="M353.2-542.5v-39.24a.26.26 0 0 1 .27-.26.26.26 0 0 0 .26-.26v-277.96a.26.26 0 0 0-.26-.26.26.26 0 0 1-.26-.26v-23.36" stroke="#3a414a" fill="none"/><path d="M353.7-542h-.96v-.5h.94z" stroke="#3a414a" stroke-width=".05" fill="#3a414a"/><path d="M353.2-898.86l4.65 14.26h-9.28z" stroke="#3a414a" fill="#3a414a"/><path d="M285.3-542.5V-764.9" stroke="#3a414a" fill="none"/><path d="M285.77-542h-.95v-.5h.95z" stroke="#3a414a" stroke-width=".05" fill="#3a414a"/><path d="M285.3-779.66l4.63 14.27h-9.27z" stroke="#3a414a" fill="#3a414a"/><path d="M480-881.48c11.05 0 20 8.95 20 20 0 11.04-8.95 20-20 20H380c-11.05 0-20-8.96-20-20 0-11.05 8.95-20 20-20z" stroke="#000" stroke-width="2" fill="#fff"/><use xlink:href="#i" transform="matrix(1,0,0,1,364.9999999999999,-876.481481481482) translate(23.533645833333335 23.40277777777778)"/><path d="M550-821.48c11.05 0 20 8.95 20 20 0 11.04-8.95 20-20 20H450c-11.05 0-20-8.96-20-20 0-11.05 8.95-20 20-20z" stroke="#000" stroke-width="2" fill="#fff"/><use xlink:href="#j" transform="matrix(1,0,0,1,434.9999999999999,-816.481481481482) translate(18.28190972222222 23.40277777777778)"/><path d="M404.7-542.5v-281.6" stroke="#3a414a" fill="none"/><path d="M405.2-542h-.96v-.5h.95z" stroke="#3a414a" stroke-width=".05" fill="#3a414a"/><path d="M404.7-838.86l4.65 14.26h-9.27z" stroke="#3a414a" fill="#3a414a"/><path d="M451.82-542.5V-576a6 6 0 0 0-6-6H445a6 6 0 0 1-6-6v-146.48a6 6 0 0 1 6-6h.82a6 6 0 0 0 6-6v-17.62" stroke="#3a414a" fill="none"/><path d="M452.3-542h-.96v-.5h.95z" stroke="#3a414a" stroke-width=".05" fill="#3a414a"/><path d="M451.82-778.86l4.63 14.26h-9.27z" stroke="#3a414a" fill="#3a414a"/><path d="M283.45 182.5V204a6 6 0 0 1-6 6H145.4" stroke="#3a414a" fill="none"/><path d="M283.92 182.5h-.95v-.5h.95z" stroke="#3a414a" stroke-width=".05" fill="#3a414a"/><path d="M130.62 210l14.27-4.63v9.26z" stroke="#3a414a" fill="#3a414a"/><path d="M338 182.5V264a6 6 0 0 1-6 6H155.4" stroke="#3a414a" fill="none"/><path d="M338.48 182.5h-.95v-.5h.95z" stroke="#3a414a" stroke-width=".05" fill="#3a414a"/><path d="M140.62 270l14.27-4.63v9.26z" stroke="#3a414a" fill="#3a414a"/><path d="M368.9 182.5v39.02a.48.48 0 0 1-.47.48.48.48 0 0 0-.48.48V334a6 6 0 0 1-6 6H23.4" stroke="#3a414a" fill="none"/><path d="M369.4 182.5h-.96v-.5h.95z" stroke="#3a414a" stroke-width=".05" fill="#3a414a"/><path d="M8.62 340l14.27-4.63v9.26z" stroke="#3a414a" fill="#3a414a"/><path d="M108 190c11.05 0 20 8.95 20 20s-8.95 20-20 20H28c-11.04 0-20-8.95-20-20s8.96-20 20-20z" stroke="#000" stroke-width="2" fill="#fff"/><use xlink:href="#k" transform="matrix(1,0,0,1,13.004272934262644,195) translate(13.403437500000004 23.40277777777778)"/><path d="M225.5 150h-80.1" stroke="#3a414a" fill="none"/><path d="M226 150.47h-.5v-.94h.5z" stroke="#3a414a" stroke-width=".05" fill="#3a414a"/><path d="M130.62 150l14.27-4.63v9.26z" stroke="#3a414a" fill="#3a414a"/><path d="M108 130c11.05 0 20 8.95 20 20s-8.95 20-20 20H28c-11.04 0-20-8.95-20-20s8.96-20 20-20z" stroke="#000" stroke-width="2" fill="#fff"/><use xlink:href="#l" transform="matrix(1,0,0,1,13.004272934262644,135) translate(29.001310763888892 23.40277777777778)"/><path d="M422.04 182.5v42a6 6 0 0 0 6 6h14.87a6 6 0 0 1 6 6v26.12" stroke="#3a414a" fill="none"/><path d="M422.52 182.5h-.95v-.5h.95z" stroke="#3a414a" stroke-width=".05" fill="#3a414a"/><path d="M448.9 277.38l-4.63-14.26h9.27z" stroke="#3a414a" fill="#3a414a"/><path d="M488 280c11.05 0 20 8.95 20 20s-8.95 20-20 20h-80c-11.04 0-20-8.95-20-20s8.96-20 20-20z" stroke="#000" stroke-width="2" fill="#fff"/><use xlink:href="#m" transform="matrix(1,0,0,1,393.00427293426264,285) translate(24.52539930555556 23.40277777777778)"/><path d="M118 250c11.05 0 20 8.95 20 20s-8.95 20-20 20H38c-11.04 0-20-8.95-20-20s8.96-20 20-20z" stroke="#000" stroke-width="2" fill="#fff"/><use xlink:href="#n" transform="matrix(1,0,0,1,23.004272934262644,255) translate(24.18360243055556 23.40277777777778)"/><path d="M108 320c11.05 0 20 8.95 20 20s-8.95 20-20 20H28c-11.04 0-20-8.95-20-20s8.96-20 20-20z" stroke="#000" stroke-width="2" fill="#fff"/><use xlink:href="#o" transform="matrix(1,0,0,1,13.004272934262644,325) translate(25.925138888888892 23.40277777777778)"/><path d="M1050-547.5v-38.76a6 6 0 0 0-6-6h-6.57a6 6 0 0 1-6-6v-22.88" stroke="#3a414a" fill="none"/><path d="M1050.47-547h-.94v-.5h.94z" stroke="#3a414a" stroke-width=".05" fill="#3a414a"/><path d="M1031.43-635.9l4.63 14.26h-9.27z" stroke="#3a414a" fill="#3a414a"/><path d="M1079.26-680c11.45 0 20.74 9.3 20.74 20.74 0 11.46-9.3 20.74-20.74 20.74H983.6c-11.46 0-20.74-9.28-20.74-20.74 0-11.45 9.28-20.74 20.74-20.74z" stroke="#000" stroke-width="2" fill="#fff"/><use xlink:href="#p" transform="matrix(1,0,0,1,967.857142857143,-675) translate(6.91905381944445 23.52777777777778)"/><path d="M360 400c11.05 0 20 8.95 20 20s-8.95 20-20 20H260c-11.05 0-20-8.95-20-20s8.95-20 20-20z" stroke="#000" stroke-width="2" fill="#fff"/><use xlink:href="#q" transform="matrix(1,0,0,1,245,405) translate(28.758255208333335 23.40277777777778)"/><path d="M748 380c11.05 0 20 8.95 20 20s-8.95 20-20 20H648c-11.04 0-20-8.95-20-20s8.96-20 20-20z" stroke="#000" stroke-width="2" fill="#fff"/><use xlink:href="#r" transform="matrix(1,0,0,1,633.0042729342626,385) translate(2.77084201388889 23.40277777777778)"/><path d="M528 380c11.05 0 20 8.95 20 20s-8.95 20-20 20H428c-11.04 0-20-8.95-20-20s8.96-20 20-20z" stroke="#000" stroke-width="2" fill="#fff"/><use xlink:href="#s" transform="matrix(1,0,0,1,413.00427293426264,385) translate(28.991545138888892 23.40277777777778)"/><path d="M1088.26-547.5v-38.76a6 6 0 0 1 6-6h76.88a6 6 0 0 0 6-6v-22.88" stroke="#3a414a" fill="none"/><path d="M1088.73-547h-.95v-.5h.95z" stroke="#3a414a" stroke-width=".05" fill="#3a414a"/><path d="M1177.14-635.9l4.64 14.26h-9.27z" stroke="#3a414a" fill="#3a414a"/><path d="M1224.97-680c11.46 0 20.74 9.3 20.74 20.74 0 11.46-9.27 20.74-20.73 20.74h-95.66c-11.44 0-20.73-9.28-20.73-20.74 0-11.45 9.3-20.74 20.74-20.74z" stroke="#000" stroke-width="2" fill="#fff"/><use xlink:href="#t" transform="matrix(1,0,0,1,1113.5714285714284,-675) translate(7.9390190972222285 23.52777777777778)"/><path d="M448 321.5V354a6 6 0 0 1-6 6H316a6 6 0 0 0-6 6v16.62" stroke="#3a414a" fill="none"/><path d="M448.48 321.5h-.95v-.5h.95z" stroke="#3a414a" stroke-width=".05" fill="#3a414a"/><path d="M310 397.38l-4.63-14.26h9.26z" stroke="#3a414a" fill="#3a414a"/><path d="M466.73 321.5v41.12" stroke="#3a414a" fill="none"/><path d="M467.2 321.5h-.95v-.5h.95z" stroke="#3a414a" stroke-width=".05" fill="#3a414a"/><path d="M466.73 377.38l-4.64-14.26h9.26z" stroke="#3a414a" fill="#3a414a"/><path d="M488.28 321.5V344a6 6 0 0 0 6 6h173.2a6 6 0 0 1 6 6v6.62" stroke="#3a414a" fill="none"/><path d="M488.75 321.5h-.95v-.5h.22l.73-.03z" stroke="#3a414a" stroke-width=".05" fill="#3a414a"/><path d="M673.48 377.38l-4.63-14.26h9.27z" stroke="#3a414a" fill="#3a414a"/><path d="M200-170c11.05 0 20 8.95 20 20s-8.95 20-20 20H100c-11.05 0-20-8.95-20-20s8.95-20 20-20z" stroke="#000" stroke-width="2" fill="#fff"/><use xlink:href="#u" transform="matrix(1,0,0,1,84.99999999999989,-165) translate(41.958125 23.40277777777778)"/><path d="M352-170c11.04 0 20 8.95 20 20s-8.96 20-20 20H252c-11.05 0-20-8.95-20-20s8.95-20 20-20z" stroke="#000" stroke-width="2" fill="#fff"/><use xlink:href="#v" transform="matrix(1,0,0,1,236.99572706573724,-165) translate(33.14193576388889 23.40277777777778)"/><path d="M133.65-227.5v22a6 6 0 0 1-6 6H4a6 6 0 0 0-6 6v6.12" stroke="#3a414a" fill="none"/><path d="M134.12-227.5h-.95v-.5h.95z" stroke="#3a414a" stroke-width=".05" fill="#3a414a"/><path d="M-2-172.62l-4.63-14.26h9.27z" stroke="#3a414a" fill="#3a414a"/><path d="M219.02-227.5v22a6 6 0 0 0 6 6H296a6 6 0 0 1 6 6v6.12" stroke="#3a414a" fill="none"/><path d="M219.5-227.5h-.96v-.5h.95z" stroke="#3a414a" stroke-width=".05" fill="#3a414a"/><path d="M302-172.62l-4.64-14.26h9.27z" stroke="#3a414a" fill="#3a414a"/><path d="M178-227.5v22a6 6 0 0 1-6 6h-6a6 6 0 0 0-6 6v6.12" stroke="#3a414a" fill="none"/><path d="M178.48-227.5h-.95v-.5h.95z" stroke="#3a414a" stroke-width=".05" fill="#3a414a"/><path d="M160-172.62l-4.63-14.26h9.26z" stroke="#3a414a" fill="#3a414a"/><path d="M627.37-150.48a6 6 0 0 1 6-6h208a6 6 0 0 1 6 6v48a6 6 0 0 1-6 6h-208a6 6 0 0 1-6-6z" stroke="#000" stroke-width="4" fill="#edf5ff"/><use xlink:href="#w" transform="matrix(1,0,0,1,639.3702326124603,-144.48148148148152) translate(57.04405381944445 26.02777777777778)"/><path d="M1055-146.48c11.05 0 20 8.95 20 20 0 11.04-8.95 20-20 20H955c-11.05 0-20-8.96-20-20 0-11.05 8.95-20 20-20z" stroke="#000" stroke-width="2" fill="#fff"/><use xlink:href="#x" transform="matrix(1,0,0,1,940,-141.48148148148152) translate(-3.0935329861111143 23.08376736111111)"/><path d="M982.4-547.5v-16.26a6 6 0 0 0-6-6H854.57a6 6 0 0 1-6-6v-.38" stroke="#3a414a" fill="none"/><path d="M982.88-547h-.95v-.5h.95z" stroke="#3a414a" stroke-width=".05" fill="#3a414a"/><path d="M848.57-590.9l4.64 14.26h-9.26z" stroke="#3a414a" fill="#3a414a"/><path d="M896.4-635c11.46 0 20.74 9.3 20.74 20.74 0 11.46-9.28 20.74-20.74 20.74h-95.66c-11.45 0-20.74-9.28-20.74-20.74 0-11.45 9.3-20.74 20.74-20.74z" stroke="#000" stroke-width="2" fill="#fff"/><use xlink:href="#y" transform="matrix(1,0,0,1,785,-630) translate(12.941189236111114 23.52777777777778)"/><path d="M241.78-116.4a8 8 0 0 1 9.6 0l70.4 52.8a4.5 4.5 0 0 1 0 7.2l-70.4 52.8a8 8 0 0 1-9.6 0l-70.4-52.8a4.5 4.5 0 0 1 0-7.2z" stroke="#000" stroke-width="2" fill="#fff"/><use xlink:href="#z" transform="matrix(1,0,0,1,171.57570150569086,-115) translate(31.81381076388889 62.77777777777778)"/><path d="M1162.5-515h162.93a6 6 0 0 0 6-6v-100.13" stroke="#3a414a" fill="none"/><path d="M1162.5-514.52h-.5v-.96h.5z" stroke="#3a414a" stroke-width=".05" fill="#3a414a"/><path d="M1331.43-635.9l4.63 14.26h-9.27z" stroke="#3a414a" fill="#3a414a"/><path d="M1379.26-680c11.45 0 20.74 9.3 20.74 20.74 0 11.46-9.3 20.74-20.74 20.74h-95.66c-11.46 0-20.74-9.28-20.74-20.74 0-11.45 9.28-20.74 20.74-20.74z" stroke="#000" stroke-width="2" fill="#fff"/><use xlink:href="#A" transform="matrix(1,0,0,1,1267.857142857143,-675) translate(0.17534722222222854 23.52777777777778)"/><path d="M765.33-83.98v25.24a6 6 0 0 0 6 6H804a6 6 0 0 1 6 6v9.36" stroke="#3a414a" fill="none"/><path d="M765.8-83.97h-.94v-.5h.95z" stroke="#3a414a" stroke-width=".05" fill="#3a414a"/><path d="M810-22.62l-4.63-14.26h9.26z" stroke="#3a414a" fill="#3a414a"/><path d="M860-20c11.05 0 20 8.95 20 20s-8.95 20-20 20H760c-11.05 0-20-8.95-20-20s8.95-20 20-20z" stroke="#000" stroke-width="2" fill="#fff"/><use xlink:href="#B" transform="matrix(1,0,0,1,744.9999999999999,-15) translate(10.968541666666669 23.40277777777778)"/><path d="M849.87-126.48h67.75" stroke="#3a414a" fill="none"/><path d="M849.88-126h-.5v-.96h.5z" stroke="#3a414a" stroke-width=".05" fill="#3a414a"/><path d="M932.38-126.48l-14.26 4.63v-9.27z" stroke="#3a414a" fill="#3a414a"/><path d="M-10.1-671.7v-14.15a6 6 0 0 0-6-6h-31.05a4.28 4.28 0 0 1-4.28-4.28" stroke="#3a414a" fill="none"/><path d="M-9.63-671.55l-.94.72v-.87h.95z" stroke="#3a414a" stroke-width=".05" fill="#3a414a"/><path d="M-51.43-710.9l4.64 14.26h-9.26z" stroke="#3a414a" fill="#3a414a"/><path d="M-3.6-755c11.46 0 20.74 9.3 20.74 20.74 0 11.46-9.28 20.74-20.74 20.74h-95.66c-11.45 0-20.74-9.28-20.74-20.74 0-11.45 9.3-20.74 20.74-20.74z" stroke="#000" stroke-width="2" fill="#fff"/><use xlink:href="#C" transform="matrix(1,0,0,1,-115,-750) translate(5.096137152777786 23.52777777777778)"/><path d="M-340-358.25a6 6 0 0 1 6-6h208a6 6 0 0 1 6 6v48a6 6 0 0 1-6 6h-208a6 6 0 0 1-6-6z" stroke="#000" stroke-width="4" fill="#edf5ff"/><use xlink:href="#D" transform="matrix(1,0,0,1,-328,-352.24464794553734) translate(68.32335069444444 26.02777777777778)"/><path d="M-600-399c11.05 0 20 8.95 20 20s-8.95 20-20 20h-100c-11.05 0-20-8.95-20-20s8.95-20 20-20z" stroke="#000" stroke-width="2" fill="#fff"/><use xlink:href="#E" transform="matrix(1,0,0,1,-715,-394) translate(33.15278645833333 23.40277777777778)"/><path d="M-600-319c11.05 0 20 8.95 20 20s-8.95 20-20 20h-100c-11.05 0-20-8.95-20-20s8.95-20 20-20z" stroke="#000" stroke-width="2" fill="#fff"/><use xlink:href="#F" transform="matrix(1,0,0,1,-715,-314) translate(25.600703125000006 23.40277777777778)"/><path d="M-582.86-239c11.05 0 20 8.95 20 20s-8.95 20-20 20h-100c-11.04 0-20-8.95-20-20s8.96-20 20-20z" stroke="#000" stroke-width="2" fill="#fff"/><use xlink:href="#u" transform="matrix(1,0,0,1,-697.8571428571431,-234) translate(41.958125 23.40277777777778)"/><path d="M-314.54-366.75V-434a6 6 0 0 0-6-6H-644a6 6 0 0 0-6 6v17.62" stroke="#3a414a" fill="none"/><path d="M-314.07-366.25h-.95v-.5h.95z" stroke="#3a414a" stroke-width=".05" fill="#3a414a"/><path d="M-650-401.62l-4.63-14.26h9.26z" stroke="#3a414a" fill="#3a414a"/><path d="M-342.5-334.25h-325.36" stroke="#3a414a" fill="none"/><path d="M-342-333.77h-.5v-.95h.5z" stroke="#3a414a" stroke-width=".05" fill="#3a414a"/><path d="M-669.76-321.6l-2.47-14.8 9.17 1.38z" stroke="#3a414a" fill="#3a414a"/><path d="M-303.78-301.75V-266a6 6 0 0 1-6 6h-319.46a3.62 3.62 0 0 0-3.62 3.62" stroke="#3a414a" fill="none"/><path d="M-303.3-301.73h-.95v-.5h.95z" stroke="#3a414a" stroke-width=".05" fill="#3a414a"/><path d="M-632.86-241.62l-4.63-14.26h9.28z" stroke="#3a414a" fill="#3a414a"/><path d="M695.2-649.92a8 8 0 0 1 9.6 0l70.4 52.8a4.5 4.5 0 0 1 0 7.2l-70.4 52.8a8 8 0 0 1-9.6 0l-70.4-52.8a4.5 4.5 0 0 1 0-7.2z" stroke="#000" stroke-width="2" fill="#fff"/><use xlink:href="#G" transform="matrix(1,0,0,1,625,-648.5185185185185) translate(46.51650173611111 62.77777777777778)"/><path d="M-316.8-182.88a8 8 0 0 1 9.6 0l70.4 52.8a4.5 4.5 0 0 1 0 7.2l-70.4 52.8a8 8 0 0 1-9.6 0l-70.4-52.8a4.5 4.5 0 0 1 0-7.2z" stroke="#000" stroke-width="2" fill="#fff"/><use xlink:href="#H" transform="matrix(1,0,0,1,-386.99572706573736,-181.48148148148152) translate(24.370234375000003 62.77777777777778)"/><path d="M43.2-709.92a8 8 0 0 1 9.6 0l70.4 52.8a4.5 4.5 0 0 1 0 7.2l-70.4 52.8a8 8 0 0 1-9.6 0l-70.4-52.8a4.5 4.5 0 0 1 0-7.2z" stroke="#000" stroke-width="2" fill="#fff"/><use xlink:href="#I" transform="matrix(1,0,0,1,-26.995727065737356,-708.5185185185185) translate(52.213116319444445 62.77777777777778)"/><path d="M241.78-451.4a8 8 0 0 1 9.6 0l70.4 52.8a4.5 4.5 0 0 1 0 7.2l-70.4 52.8a8 8 0 0 1-9.6 0l-70.4-52.8a4.5 4.5 0 0 1 0-7.2z" stroke="#000" stroke-width="2" fill="#fff"/><use xlink:href="#J" transform="matrix(1,0,0,1,171.57570150569083,-450) translate(5.9033203125 62.275390625)"/><path d="M545.98-354.78a8 8 0 0 1 9.6 0l70.4 52.8a4.5 4.5 0 0 1 0 7.2l-70.4 52.8a8 8 0 0 1-9.6 0l-70.4-52.8a4.5 4.5 0 0 1 0-7.2z" stroke="#000" stroke-width="2" fill="#fff"/><use xlink:href="#K" transform="matrix(1,0,0,1,475.7750252524904,-353.3796296296296) translate(54.643671875 62.77777777777778)"/><path d="M488.06-44.64a8 8 0 0 1 9.6 0l70.4 52.8a4.5 4.5 0 0 1 0 7.2l-70.4 52.8a8 8 0 0 1-9.6 0l-70.4-52.8a4.5 4.5 0 0 1 0-7.2z" stroke="#000" stroke-width="2" fill="#fff"/><use xlink:href="#L" transform="matrix(1,0,0,1,417.857142857143,-43.24074074074076) translate(28.61285590277778 62.77777777777778)"/><path d="M1023.77 93.6a8 8 0 0 1 9.6 0l70.4 52.8a4.5 4.5 0 0 1 0 7.2l-70.4 52.8a8 8 0 0 1-9.6 0l-70.4-52.8a4.5 4.5 0 0 1 0-7.2z" stroke="#000" stroke-width="2" fill="#fff"/><use xlink:href="#M" transform="matrix(1,0,0,1,953.5714285714284,95) translate(15.938159722222219 61.90972222222222)"/><path d="M433.2-234.78a8 8 0 0 1 9.6 0l70.4 52.8a4.5 4.5 0 0 1 0 7.2l-70.4 52.8a8 8 0 0 1-9.6 0l-70.4-52.8a4.5 4.5 0 0 1 0-7.2z" stroke="#000" stroke-width="2" fill="#fff"/><use xlink:href="#N" transform="matrix(1,0,0,1,363.00427293426264,-233.37962962962962) translate(44.986553819444445 62.77777777777778)"/><path d="M745.2-551.4a8 8 0 0 1 9.6 0l70.4 52.8a4.5 4.5 0 0 1 0 7.2l-70.4 52.8a8 8 0 0 1-9.6 0l-70.4-52.8a4.5 4.5 0 0 1 0-7.2z" stroke="#000" stroke-width="2" fill="#fff"/><use xlink:href="#O" transform="matrix(1,0,0,1,675,-550) translate(37.67861111111112 62.77777777777778)"/><path d="M370.14-477.52l67.73 239.66" stroke="#3a414a" fill="none"/><path d="M370.6-477.64l-.92.26-.17-.62h1zM438.5-237.35l-.5-.03-.48.03-.1-.4.9-.25z" stroke="#3a414a" stroke-width=".05" fill="#3a414a"/><path d="M437.8-118.92l-99.6 236.46" stroke="#3a414a" fill="none"/><path d="M438.24-118.72l-.87-.37.13-.3.5.02.53-.03zM338.64 117.7l-.12.3h-1.03l.27-.66z" stroke="#3a414a" stroke-width=".05" fill="#3a414a"/><path d="M290-304a6 6 0 0 1 6-6h228a6 6 0 0 1 6 6v48a6 6 0 0 1-6 6H296a6 6 0 0 1-6-6z" fill="none"/><use xlink:href="#P" transform="matrix(1,0,0,1,290,-310) translate(115.48068576388889 38.083767361111114)"/><path d="M290 56a6 6 0 0 1 6-6h228a6 6 0 0 1 6 6v48a6 6 0 0 1-6 6H296a6 6 0 0 1-6-6z" fill="none"/><use xlink:href="#Q" transform="matrix(1,0,0,1,290,50) translate(109.96310763888889 38.083767361111114)"/><path d="M1109.4-482.5l-2.86 631.58" stroke="#3a414a" fill="none"/><path d="M1109.87-482.5h-.95v-.5h.95zM1107 149.07v3.5h-.95v-.27l.15-.3.28-1 .1-1-.1-.93z" stroke="#3a414a" stroke-width=".05" fill="#3a414a"/><path d="M482.44-510.24l142.12-78.04" stroke="#3a414a" fill="none"/><path d="M482.68-509.83l-.68.37v-1.08l.22-.12zM625.42-588.2l-.64.35-.46-.84.26-.13z" stroke="#3a414a" stroke-width=".05" fill="#3a414a"/><path d="M778.45-593.3l159.1 78.08" stroke="#3a414a" fill="none"/><path d="M778.67-593.72l-.4.85-.3-.14.03-.52-.05-.55zM938-515.53v1.06l-.67-.33.42-.85z" stroke="#3a414a" stroke-width=".05" fill="#3a414a"/><path d="M950.07 150H450.5" stroke="#3a414a" fill="none"/><path d="M950.57 150l.04.47h-.55v-.94h.56zM450.52 150.47H450v-.94h.52z" stroke="#3a414a" stroke-width=".05" fill="#3a414a"/><path d="M1030-185.76a6 6 0 0 1 6-6h228a6 6 0 0 1 6 6v48a6 6 0 0 1-6 6h-228a6 6 0 0 1-6-6z" fill="none"/><use xlink:href="#P" transform="matrix(1,0,0,1,1030,-191.75925925925924) translate(115.48068576388889 38.083767361111114)"/><path d="M607.37 111.88a6 6 0 0 1 6-6h228a6 6 0 0 1 6 6v48a6 6 0 0 1-6 6h-228a6 6 0 0 1-6-6z" fill="none"/><use xlink:href="#P" transform="matrix(1,0,0,1,607.3702326124603,105.87962962962962) translate(115.48068576388889 38.083767361111114)"/><path d="M479.2-479.56l192.3-15.4" stroke="#3a414a" fill="none"/><path d="M479.25-479.1l-1.44.13.9-.55.5-.4zM672-495l.04.47-.52.04-.07-.93.6-.05z" stroke="#3a414a" stroke-width=".05" fill="#3a414a"/><path d="M677.14-587.52a6 6 0 0 1 6-6h228a6 6 0 0 1 6 6v48a6 6 0 0 1-6 6h-228a6 6 0 0 1-6-6z" fill="none"/><use xlink:href="#Q" transform="matrix(1,0,0,1,677.1428571428571,-593.5185185185185) translate(109.96310763888889 38.083767361111114)"/><path d="M828.5-494.95l112.78 10.67" stroke="#3a414a" fill="none"/><path d="M828.56-495.43l-.1.95-.5-.05.04-.47-.04-.48zM941.3-484.52l1.07.65.53.22-1.68-.16.07-.73z" stroke="#3a414a" stroke-width=".05" fill="#3a414a"/><path d="M488-539a6 6 0 0 1 6-6h228a6 6 0 0 1 6 6v48a6 6 0 0 1-6 6H494a6 6 0 0 1-6-6z" fill="none"/><use xlink:href="#Q" transform="matrix(1,0,0,1,488.00427293426264,-545) translate(109.96310763888889 38.083767361111114)"/><path d="M748-504a6 6 0 0 1 6-6h228a6 6 0 0 1 6 6v48a6 6 0 0 1-6 6H754a6 6 0 0 1-6-6z" fill="none"/><use xlink:href="#R" transform="matrix(1,0,0,1,748.0042729342628,-510) translate(111.62868923611111 38.083767361111114)"/><path d="M668-456.76c11.05 0 20 8.95 20 20s-8.95 20-20 20H568c-11.04 0-20-8.95-20-20s8.96-20 20-20z" stroke="#000" stroke-width="2" fill="#fff"/><use xlink:href="#S" transform="matrix(1,0,0,1,553.0042729342626,-451.75925925925924) translate(4.235685763888897 23.40277777777778)"/><path d="M707.5-465.2l-89 7.4" stroke="#3a414a" fill="none"/><path d="M708.58-464.82l-1.05.1-.07-.94zM618.52-457.76H615l-.02-.22 3.5-.3z" stroke="#3a414a" stroke-width=".05" fill="#3a414a"/><path d="M940-450c11.05 0 20 8.95 20 20s-8.95 20-20 20H840c-11.05 0-20-8.95-20-20s8.95-20 20-20z" stroke="#000" stroke-width="2" fill="#fff"/><use xlink:href="#T" transform="matrix(1,0,0,1,825,-445) translate(10.138463541666669 23.40277777777778)"/><path d="M783.22-458.26l109 7.23" stroke="#3a414a" fill="none"/><path d="M783.2-457.78l-1.06-.07 1.12-.85zM895.75-451.28l-.02.28h-3.52l.04-.5z" stroke="#3a414a" stroke-width=".05" fill="#3a414a"/><path d="M317.4 117.5l7.16-177" stroke="#3a414a" fill="none"/><path d="M317.88 117.5l-.02.5h-.95l.03-.53zM325.18-62.98l-.15 3.5h-.5l.05-.52-.1-1.02-.27-.97v-.03l.03-1z" stroke="#3a414a" stroke-width=".05" fill="#3a414a"/><path d="M404.12 279.6h3.38" stroke="#3a414a" fill="none"/><path d="M404.13 279.5l-2.75.56-.07.03h-.68v-.96h3.5z" stroke="#3a414a" stroke-width=".05" fill="#3a414a"/><path d="M407.5 279.6h.5M168.07-60h-33.5a6 6 0 0 1-6-6v-4.48a6 6 0 0 0-6-6H-65.16a6 6 0 0 1-6-6V-254a6 6 0 0 1 6-6H65.5" stroke="#3a414a" fill="none"/><path d="M168.57-60l.05.48h-.56v-.95h.56zM66-259.52h-.5v-.96h.5z" stroke="#3a414a" stroke-width=".05" fill="#3a414a"/><path d="M273.15-134.77a6 6 0 0 1 6-6h228a6 6 0 0 1 6 6v48a6 6 0 0 1-6 6h-228a6 6 0 0 1-6-6z" fill="none"/><use xlink:href="#Q" transform="matrix(1,0,0,1,273.1514030113822,-140.768157306102) translate(109.96310763888889 38.083767361111114)"/><path d="M530-42.24a6 6 0 0 1 6-6h228a6 6 0 0 1 6 6v48a6 6 0 0 1-6 6H536a6 6 0 0 1-6-6z" fill="none"/><use xlink:href="#R" transform="matrix(1,0,0,1,530,-48.24074074074076) translate(111.62868923611111 38.083767361111114)"/><path d="M-233.54-126.26L263 117.78" stroke="#3a414a" fill="none"/><path d="M-233.32-126.68l-.42.85-.3-.14.05-.5-.04-.57zM264.53 118h-1.65l.32-.65z" stroke="#3a414a" stroke-width=".05" fill="#3a414a"/><path d="M-230.34-301.88l-159.32 175.03" stroke="#3a414a" fill="none"/><path d="M-230-301.55l-.7-.63.06-.06h1.28zM-389.3-126.54l-.64.7-.06-.64.06-.64z" stroke="#3a414a" stroke-width=".05" fill="#3a414a"/><path d="M48-170c11.05 0 20 8.95 20 20s-8.95 20-20 20H-52c-11.04 0-20-8.95-20-20s8.96-20 20-20z" stroke="#000" stroke-width="2" fill="#fff"/><use xlink:href="#U" transform="matrix(1,0,0,1,-66.99572706573747,-165) translate(22.73069444444445 23.40277777777778)"/><path d="M39-394a6 6 0 0 1 6-6h228a6 6 0 0 1 6 6v48a6 6 0 0 1-6 6H45a6 6 0 0 1-6-6z" fill="none"/><use xlink:href="#Q" transform="matrix(1,0,0,1,39.00213646713132,-400) translate(109.96310763888889 38.083767361111114)"/><path d="M168 17.76a6 6 0 0 1 6-6h228a6 6 0 0 1 6 6v48a6 6 0 0 1-6 6H174a6 6 0 0 1-6-6z" fill="none"/><use xlink:href="#R" transform="matrix(1,0,0,1,168.00427293426264,11.759259259259238) translate(111.62868923611111 38.083767361111114)"/><path d="M286.57-290.6L168.95-394.68" stroke="#3a414a" fill="none"/><path d="M289.5-288.65l-.58.66-.44-.7-.8-.96-.97-.82-.17-.1.34-.4zM169.27-395.02l-.63.72-.07-.7.06-.6z" stroke="#3a414a" stroke-width=".05" fill="#3a414a"/><path d="M324.56-395.5l-2.8-82" stroke="#3a414a" fill="none"/><path d="M325.16-392.02l-.95.03-.02-.94.03-.06.3-1 .08-1-.05-.5.5-.03zM322.24-477.5l-.95.03-.03-.53h.96z" stroke="#3a414a" stroke-width=".05" fill="#3a414a"/><path d="M172.86-479a6 6 0 0 1 6-6h228a6 6 0 0 1 6 6v48a6 6 0 0 1-6 6h-228a6 6 0 0 1-6-6z" fill="none"/><use xlink:href="#R" transform="matrix(1,0,0,1,172.857142857143,-485) translate(111.62868923611111 38.083767361111114)"/><path d="M322.2-840.16v3.26" stroke="#3a414a" fill="none"/><path d="M322.67-840.15h-.96v-.42l.97-.2z" stroke="#3a414a" stroke-width=".05" fill="#3a414a"/><path d="M322.2-836.9v.5M257.54-510.2L48.47-594.32" stroke="#3a414a" fill="none"/><path d="M258-510.5v1l-.65-.25.35-.88zM46.85-594.6l1.15.08.57-.03-.27.67-2.04-.83z" stroke="#3a414a" stroke-width=".05" fill="#3a414a"/><path d="M126.4-653.2l134.5 112.4" stroke="#3a414a" fill="none"/><path d="M126.7-653.55l-.6.72-.14-.1.05-.6-.05-.66zM261.72-540.74l-.43.26-.37.32-.33-.28.6-.73z" stroke="#3a414a" stroke-width=".05" fill="#3a414a"/><path d="M380.16 117.53l34.54-105.3" stroke="#3a414a" fill="none"/><path d="M380.6 117.66l-.1.34h-1l.2-.64zM415.67 8.87l-.44.9-.28.97-.1 1.02.05.56-.66-.22 1.1-3.34z" stroke="#3a414a" stroke-width=".05" fill="#3a414a"/><path d="M571.2 11.4L676.76-94.12" stroke="#3a414a" fill="none"/><path d="M571.56 11.73l-.77.77.06-.74-.06-.62.1-.08zM677.08-93.78l-.68-.67.03-.03h1.34z" stroke="#3a414a" stroke-width=".05" fill="#3a414a"/><path d="M399.08-477.7l151.3 120" stroke="#3a414a" fill="none"/><path d="M398.8-477.3l-.88-.7h1.42zM551.6-357.33l-.83-.05-.68.04.57-.73z" stroke="#3a414a" stroke-width=".05" fill="#3a414a"/><path d="M551.06-238.97l74.02 105.8" stroke="#3a414a" fill="none"/><path d="M550.77-239.38l.56-.03.13.17-.78.54-.5-.72zM625.37-131.93l-.68-.97.67-.48z" stroke="#3a414a" stroke-width=".05" fill="#3a414a"/><path d="M358-404a6 6 0 0 1 6-6h228a6 6 0 0 1 6 6v48a6 6 0 0 1-6 6H364a6 6 0 0 1-6-6z" fill="none"/><use xlink:href="#P" transform="matrix(1,0,0,1,358.00427293426264,-410) translate(115.48068576388889 38.083767361111114)"/><path d="M488-221.43a6 6 0 0 1 6-6h228a6 6 0 0 1 6 6v48a6 6 0 0 1-6 6H494a6 6 0 0 1-6-6z" fill="none"/><use xlink:href="#P" transform="matrix(1,0,0,1,488.00427293426264,-227.43055555555557) translate(115.48068576388889 38.083767361111114)"/><path d="M500-594a6 6 0 0 1 6-6h228a6 6 0 0 1 6 6v48a6 6 0 0 1-6 6H506a6 6 0 0 1-6-6z" fill="none"/><use xlink:href="#P" transform="matrix(1,0,0,1,499.9999999999999,-600) translate(115.48068576388889 38.083767361111114)"/><path d="M610.86-160.48a6 6 0 0 1 6-6h242.3a6 6 0 0 1 6 6v68a6 6 0 0 1-6 6h-242.3a6 6 0 0 1-6-6z" stroke="#000" stroke-width="4" fill-opacity="0"/><path d="M545.92-360.72a8.27 8.27 0 0 1 9.7 0l81.07 58.82a4.35 4.35 0 0 1 0 7.04l-81.07 58.82a8.27 8.27 0 0 1-9.7 0l-81.07-58.82a4.35 4.35 0 0 1 0-7.04zM488-50.58a8.27 8.27 0 0 1 9.7 0L578.8 8.24a4.35 4.35 0 0 1 0 7.04L497.7 74.1a8.27 8.27 0 0 1-9.7 0l-81.06-58.82a4.35 4.35 0 0 1 0-7.04z" stroke="#000" stroke-width="2" fill-opacity="0"/><path d="M762.57-396.4a8 8 0 0 1 9.6 0l70.4 52.8a4.5 4.5 0 0 1 0 7.2l-70.4 52.8a8 8 0 0 1-9.6 0l-70.4-52.8a4.5 4.5 0 0 1 0-7.2z" stroke="#000" stroke-width="2" fill="#fff"/><use xlink:href="#V" transform="matrix(1,0,0,1,692.3702326124603,-395) translate(51.07704861111111 61.90972222222222)"/><path d="M852.7-344.65l217.54-138.08M852.76-344.7l-7.17 4.57 20.97-.88" stroke="#3a414a" fill="none"/><path d="M1070.5-482.32l-.44-.68h1.5z" stroke="#3a414a" stroke-width=".05" fill="#3a414a"/><path d="M768-177.16v-103.38M768-177.23v8.5l10.5-18.2" stroke="#3a414a" fill="none"/><path d="M768.48-280.53h-.96v-.48l.96-.07z" stroke="#3a414a" stroke-width=".05" fill="#3a414a"/><path d="M681.76-344.2L439.1-477.75M681.7-344.22l7.45 4.1-10.87-17.97" stroke="#3a414a" fill="none"/><path d="M438.9-477.34l-1.22-.66h1.57z" stroke="#3a414a" stroke-width=".05" fill="#3a414a"/><path d="M40.9-707.52l-41.75 29.4M40.85-707.48l6.95-4.9-20.9 1.9" stroke="#3a414a" fill="none"/><path d="M-.84-678.13l-2.82 2.1-.32-.46 2.87-2z" stroke="#3a414a" stroke-width=".05" fill="#3a414a"/><path d="M-20-609a6 6 0 0 1 6-6h228a6 6 0 0 1 6 6v48a6 6 0 0 1-6 6H-14a6 6 0 0 1-6-6z" fill="none"/><use xlink:href="#W" transform="matrix(1,0,0,1,-20,-615) translate(115.48068576388889 38.083767361111114)"/><path d="M26.58-629a6 6 0 0 1 6-6h228a6 6 0 0 1 6 6v48a6 6 0 0 1-6 6h-228a6 6 0 0 1-6-6z" fill="none"/><use xlink:href="#W" transform="matrix(1,0,0,1,26.575701505691086,-635) translate(115.48068576388889 38.083767361111114)"/><path d="M-73.42-575.03a6 6 0 0 1 6-6h228a6 6 0 0 1 6 6v48a6 6 0 0 1-6 6h-228a6 6 0 0 1-6-6z" fill="none"/><use xlink:href="#X" transform="matrix(1,0,0,1,-73.42429849430917,-581.0326606448775) translate(89.25998263888889 38.083767361111114)"/><use xlink:href="#Y" transform="matrix(1,0,0,1,-73.42429849430917,-581.0326606448775) translate(141.70138888888889 38.083767361111114)"/><path d="M60-689a6 6 0 0 1 6-6h228a6 6 0 0 1 6 6v48a6 6 0 0 1-6 6H66a6 6 0 0 1-6-6z" fill="none"/><use xlink:href="#Z" transform="matrix(1,0,0,1,59.999999999999886,-695) translate(90.12803819444446 38.083767361111114)"/><path d="M186.7-228h84.77M186.75-228h-8.5l18.2 10.5" stroke="#3a414a" fill="none"/><path d="M274.97-227.53h-3.52v-.47h3.52z" stroke="#3a414a" stroke-width=".05" fill="#3a414a"/><path d="M-304.3-189.5l563.7-295.27M-304.25-189.54l-7.52 3.94 20.98.86" stroke="#3a414a" fill="none"/><path d="M259.6-484.34l-.35-.66h1.6z" stroke="#3a414a" stroke-width=".05" fill="#3a414a"/><path d="M-400-706.73a6 6 0 0 1 6-6h208a6 6 0 0 1 6 6v48a6 6 0 0 1-6 6h-208a6 6 0 0 1-6-6z" stroke="#000" stroke-width="4" fill="#edf5ff"/><use xlink:href="#aa" transform="matrix(1,0,0,1,-388,-700.7314922575695) translate(58.60112847222222 26.02777777777778)"/><path d="M-380-833.25c11.05 0 20 8.95 20 20s-8.95 20-20 20h-100c-11.05 0-20-8.95-20-20s8.95-20 20-20z" stroke="#000" stroke-width="2" fill="#fff"/><use xlink:href="#ab" transform="matrix(1,0,0,1,-494.9999999999998,-828.25) translate(13.659513888888883 23.40277777777778)"/><path d="M-420-613.25c11.05 0 20 8.95 20 20s-8.95 20-20 20h-100c-11.05 0-20-8.95-20-20s8.95-20 20-20z" stroke="#000" stroke-width="2" fill="#fff"/><use xlink:href="#ac" transform="matrix(1,0,0,1,-535,-608.25) translate(41.627178819444445 23.40277777777778)"/><path d="M-222.86-833.25c11.05 0 20 8.95 20 20s-8.95 20-20 20h-100c-11.04 0-20-8.95-20-20s8.96-20 20-20z" stroke="#000" stroke-width="2" fill="#fff"/><use xlink:href="#ad" transform="matrix(1,0,0,1,-337.8571428571429,-828.25) translate(36.836597222222224 23.40277777777778)"/><path d="M-356.5-715.23v-32.26a6 6 0 0 0-6-6H-424a6 6 0 0 1-6-6v-16.37" stroke="#3a414a" fill="none"/><path d="M-356.03-714.73h-.95v-.5h.95z" stroke="#3a414a" stroke-width=".05" fill="#3a414a"/><path d="M-430-790.63l4.63 14.26h-9.26z" stroke="#3a414a" fill="#3a414a"/><path d="M-290-650.23v11.74a6 6 0 0 1-6 6h-192.14a1.86 1.86 0 0 0-1.86 1.87" stroke="#3a414a" fill="none"/><path d="M-289.52-650.22h-.96v-.5h.96z" stroke="#3a414a" stroke-width=".05" fill="#3a414a"/><path d="M-490-615.87l-4.63-14.26h9.26z" stroke="#3a414a" fill="#3a414a"/><path d="M-208.4-715.23v-32.26a6 6 0 0 0-6-6h-52.46a6 6 0 0 1-6-6v-16.37" stroke="#3a414a" fill="none"/><path d="M-207.94-714.73h-.95v-.5h.96z" stroke="#3a414a" stroke-width=".05" fill="#3a414a"/><path d="M-272.86-790.63l4.64 14.26h-9.27z" stroke="#3a414a" fill="#3a414a"/><path d="M-470-571.75v22.23a6 6 0 0 0 6 6h118a6 6 0 0 1 6 6v6.35" stroke="#3a414a" fill="none"/><path d="M-469.52-571.74h-.96v-.5h.96z" stroke="#3a414a" stroke-width=".05" fill="#3a414a"/><path d="M-340-516.4l-4.63-14.27h9.26z" stroke="#3a414a" fill="#3a414a"/><path d="M-300-513.8c11.05 0 20 8.97 20 20 0 11.06-8.95 20-20 20h-80c-11.05 0-20-8.94-20-20 0-11.03 8.95-20 20-20z" stroke="#000" stroke-width="2" fill="#fff"/><use xlink:href="#ae" transform="matrix(1,0,0,1,-395,-508.78703703703695) translate(25.925138888888892 23.40277777777778)"/><path d="M-471.32-571.75v22.23a6 6 0 0 1-6 6H-574a6 6 0 0 0-6 6v6.35" stroke="#3a414a" fill="none"/><path d="M-470.85-571.74h-.95v-.5h.95z" stroke="#3a414a" stroke-width=".05" fill="#3a414a"/><path d="M-580-516.4l-4.63-14.27h9.26z" stroke="#3a414a" fill="#3a414a"/><path d="M-540-513.8c11.05 0 20 8.97 20 20 0 11.06-8.95 20-20 20h-80c-11.05 0-20-8.94-20-20 0-11.03 8.95-20 20-20z" stroke="#000" stroke-width="2" fill="#fff"/><use xlink:href="#af" transform="matrix(1,0,0,1,-635,-508.78703703703695) translate(31.50782118055556 23.40277777777778)"/><path d="M-76.8-562.42a8 8 0 0 1 9.6 0l70.4 52.8a4.5 4.5 0 0 1 0 7.2l-70.4 52.8a8 8 0 0 1-9.6 0l-70.4-52.8a4.5 4.5 0 0 1 0-7.2z" stroke="#000" stroke-width="2" fill="#fff"/><use xlink:href="#ag" transform="matrix(1,0,0,1,-146.99572706573736,-561.0185185185185) translate(48.93620659722222 62.77777777777778)"/><path d="M-79.13-569.97l-115.9-80.48M-79.18-570l6.98 4.84-8.95-19" stroke="#3a414a" fill="none"/><path d="M-195.28-650.05l-.98-.68h1.45z" stroke="#3a414a" stroke-width=".05" fill="#3a414a"/><path d="M-79.73-443.06l-149.82 76.6M-79.8-443.03l7.58-3.87-20.97-1.07" stroke="#3a414a" fill="none"/><path d="M-229.42-366.25h-1.62l1.28-.65z" stroke="#3a414a" stroke-width=".05" fill="#3a414a"/><path d="M14.7-506.16L257.5-510M14.76-506.16l-8.5.14 18.35 10.2" stroke="#3a414a" fill="none"/><path d="M258-509.52h-.5l-.02-.95h.52z" stroke="#3a414a" stroke-width=".05" fill="#3a414a"/><path d="M-160-394a6 6 0 0 1 6-6H74a6 6 0 0 1 6 6v48a6 6 0 0 1-6 6h-228a6 6 0 0 1-6-6z" fill="none"/><use xlink:href="#ah" transform="matrix(1,0,0,1,-160.0000000000001,-400) translate(111.62868923611111 38.083767361111114)"/><path d="M-172-14a6 6 0 0 1 6-6H62a6 6 0 0 1 6 6v48a6 6 0 0 1-6 6h-228a6 6 0 0 1-6-6z" fill="none"/><use xlink:href="#ai" transform="matrix(1,0,0,1,-171.99572706573747,-20) translate(110.26692708333333 38.083767361111114)"/><path d="M-340-304a6 6 0 0 1 6-6h228a6 6 0 0 1 6 6v48a6 6 0 0 1-6 6h-228a6 6 0 0 1-6-6z" fill="none"/><use xlink:href="#aj" transform="matrix(1,0,0,1,-340,-310) translate(113.71744791666667 38.083767361111114)"/><path d="M-340-433a6 6 0 0 1 6-6h228a6 6 0 0 1 6 6v48a6 6 0 0 1-6 6h-228a6 6 0 0 1-6-6z" fill="none"/><use xlink:href="#ai" transform="matrix(1,0,0,1,-340,-439) translate(110.26692708333333 38.083767361111114)"/><path d="M-40-502.55a6 6 0 0 1 6-6h228a6 6 0 0 1 6 6v48a6 6 0 0 1-6 6H-34a6 6 0 0 1-6-6z" fill="none"/><use xlink:href="#W" transform="matrix(1,0,0,1,-40,-508.54680277123657) translate(115.48068576388889 38.083767361111114)"/><path d="M-280-629a6 6 0 0 1 6-6h228a6 6 0 0 1 6 6v48a6 6 0 0 1-6 6h-228a6 6 0 0 1-6-6z" fill="none"/><use xlink:href="#W" transform="matrix(1,0,0,1,-280,-635) translate(115.48068576388889 38.083767361111114)"/><path d="M660-273a6 6 0 0 1 6-6h228a6 6 0 0 1 6 6v48a6 6 0 0 1-6 6H666a6 6 0 0 1-6-6z" fill="none"/><use xlink:href="#ak" transform="matrix(1,0,0,1,660,-279) translate(127.96810763888888 38.083767361111114)"/><path d="M800-389a6 6 0 0 1 6-6h228a6 6 0 0 1 6 6v48a6 6 0 0 1-6 6H806a6 6 0 0 1-6-6z" fill="none"/><use xlink:href="#al" transform="matrix(1,0,0,1,800,-395) translate(113.43532986111111 38.083767361111114)"/><path d="M528-404a6 6 0 0 1 6-6h228a6 6 0 0 1 6 6v48a6 6 0 0 1-6 6H534a6 6 0 0 1-6-6z" fill="none"/><use xlink:href="#aj" transform="matrix(1,0,0,1,528.0042729342626,-410) translate(113.71744791666667 38.083767361111114)"/><defs><path d="M763 24c-353 0-583-224-583-531v-983h190v968c0 214 149 370 393 370 243 0 391-156 391-370v-968h190v983c0 307-230 531-581 531" id="am"/><path d="M538 24C308 24 148-78 108-271l171-41c32 123 123 178 257 178 156 0 256-77 256-169 0-77-54-128-164-154l-186-44c-203-48-300-148-300-305 0-192 176-326 414-326 230 0 351 112 402 269l-163 42c-31-80-94-158-238-158-133 0-233 69-233 162 0 83 57 129 188 160l169 40c203 48 298 149 298 302 0 196-179 339-441 339" id="an"/><path d="M628 24c-324 0-524-230-524-574 0-343 198-582 503-582 237 0 487 146 487 559v75H286c9 234 145 362 343 362 132 0 231-58 273-172l174 48C1024-91 857 24 628 24zM287-650h624c-17-190-120-322-304-322-192 0-309 151-320 322" id="ao"/><path d="M158 0v-1118h174v172h12c41-113 157-188 290-188 26 0 70 2 91 3v181c-11-2-60-10-108-10-161 0-279 109-279 260V0H158" id="ap"/><g id="a"><use transform="matrix(0.010850694444444444,0,0,0.010850694444444444,0,0)" xlink:href="#am"/><use transform="matrix(0.010850694444444444,0,0,0.010850694444444444,16.536458333333332,0)" xlink:href="#an"/><use transform="matrix(0.010850694444444444,0,0,0.010850694444444444,28.266059027777775,0)" xlink:href="#ao"/><use transform="matrix(0.010850694444444444,0,0,0.010850694444444444,41.22178819444444,0)" xlink:href="#ap"/></g><path d="M98-1322v-168h1126v168H757V0H567v-1322H98" id="aq"/><path d="M471 26C259 26 90-98 90-318c0-256 228-303 435-329 202-27 287-16 287-108 0-139-79-219-234-219-161 0-248 86-283 164l-173-57c86-203 278-265 451-265 150 0 419 46 419 395V0H815v-152h-12C765-73 660 26 471 26zm31-159c199 0 310-134 310-271v-155c-30 35-226 55-295 64-131 17-246 59-246 186 0 116 97 176 231 176" id="ar"/><path d="M577 24c-279 0-473-224-473-580 0-354 195-576 474-576 218 0 287 134 324 193h14v-551h180V0H922v-173h-20C865-111 790 24 577 24zm27-161c203 0 314-172 314-421 0-247-108-413-314-413-212 0-317 181-317 413 0 235 108 421 317 421" id="as"/><g id="b"><use transform="matrix(0.010850694444444444,0,0,0.010850694444444444,0,0)" xlink:href="#aq"/><use transform="matrix(0.010850694444444444,0,0,0.010850694444444444,13.0859375,0)" xlink:href="#ap"/><use transform="matrix(0.010850694444444444,0,0,0.010850694444444444,21.451822916666664,0)" xlink:href="#ar"/><use transform="matrix(0.010850694444444444,0,0,0.010850694444444444,33.93012152777777,0)" xlink:href="#as"/><use transform="matrix(0.010850694444444444,0,0,0.010850694444444444,47.5368923611111,0)" xlink:href="#ao"/></g><path d="M52 0l541-1490h220L1361 0h-200l-149-416H398L254 0H52zm404-582h497c-103-290-145-390-251-756-108 377-145 460-246 756" id="at"/><path d="M537 14c-226 0-379-139-379-422v-710h180v695c0 172 97 275 253 275 160 0 281-109 281-300v-670h181V0H879v-209C806-46 684 14 537 14" id="au"/><path d="M613 24c-304 0-509-231-509-576 0-350 205-580 509-580 216 0 392 114 453 309l-173 49c-33-115-133-197-280-197-223 0-326 196-326 419 0 220 103 415 326 415 150 0 252-85 285-206l172 49C1010-95 832 24 613 24" id="av"/><path d="M598-1118v154H368v674c0 100 37 144 132 144 23 0 62-6 92-12L629-6c-37 13-88 20-134 20-193 0-307-107-307-290v-688H20v-154h168v-266h180v266h230" id="aw"/><path d="M158 0v-1118h180V0H158zm91-1301c-68 0-125-53-125-119s57-119 125-119c69 0 126 53 126 119s-57 119-126 119" id="ax"/><path d="M613 24c-304 0-509-231-509-576 0-350 205-580 509-580 305 0 511 230 511 580 0 345-206 576-511 576zm0-161c226 0 329-195 329-415 0-222-103-419-329-419-223 0-326 196-326 419 0 220 103 415 326 415" id="ay"/><path d="M338-670V0H158v-1118h173l1 207c72-158 192-221 342-221 226 0 378 139 378 422V0H872v-695c0-172-96-275-252-275-161 0-282 109-282 300" id="az"/><g id="c"><use transform="matrix(0.010850694444444444,0,0,0.010850694444444444,0,0)" xlink:href="#at"/><use transform="matrix(0.010850694444444444,0,0,0.010850694444444444,15.33203125,0)" xlink:href="#au"/><use transform="matrix(0.010850694444444444,0,0,0.010850694444444444,28.47222222222222,0)" xlink:href="#av"/><use transform="matrix(0.010850694444444444,0,0,0.010850694444444444,41.16753472222222,0)" xlink:href="#aw"/><use transform="matrix(0.010850694444444444,0,0,0.010850694444444444,48.4375,0)" xlink:href="#ax"/><use transform="matrix(0.010850694444444444,0,0,0.010850694444444444,53.81944444444444,0)" xlink:href="#ay"/><use transform="matrix(0.010850694444444444,0,0,0.010850694444444444,67.14409722222221,0)" xlink:href="#az"/></g><path d="M783 20c-382 0-661-292-661-764 0-473 279-766 661-766 302 0 548 182 601 489h-190c-42-204-217-313-411-313-268 0-476 208-476 590 0 381 209 588 476 588 195 0 369-110 411-313h190c-52 303-296 489-601 489" id="aA"/><g id="d"><use transform="matrix(0.010850694444444444,0,0,0.010850694444444444,0,0)" xlink:href="#aA"/><use transform="matrix(0.010850694444444444,0,0,0.010850694444444444,16.23263888888889,0)" xlink:href="#ar"/><use transform="matrix(0.010850694444444444,0,0,0.010850694444444444,28.7109375,0)" xlink:href="#ap"/><use transform="matrix(0.010850694444444444,0,0,0.010850694444444444,36.70789930555556,0)" xlink:href="#as"/></g><path d="M934 0v166H0V0h934" id="aB"/><g id="e"><use transform="matrix(0.010850694444444444,0,0,0.010850694444444444,0,0)" xlink:href="#au"/><use transform="matrix(0.010850694444444444,0,0,0.010850694444444444,13.140190972222221,0)" xlink:href="#an"/><use transform="matrix(0.010850694444444444,0,0,0.010850694444444444,24.869791666666664,0)" xlink:href="#ao"/><use transform="matrix(0.010850694444444444,0,0,0.010850694444444444,37.82552083333333,0)" xlink:href="#ap"/><use transform="matrix(0.010850694444444444,0,0,0.010850694444444444,46.191406249999986,0)" xlink:href="#aB"/><use transform="matrix(0.010850694444444444,0,0,0.010850694444444444,57.07465277777778,0)" xlink:href="#ax"/><use transform="matrix(0.010850694444444444,0,0,0.010850694444444444,62.45659722222221,0)" xlink:href="#as"/><path d="M-1.1 4.54h78.28v1.52h-78.3z"/></g><path d="M158 0v-1118h175l1 205c55-151 181-225 313-225 147 0 245 90 285 228 53-141 190-228 352-228 194 0 352 125 352 384V0h-181v-749c0-161-105-225-225-225-151 0-243 103-243 244V0H807v-767c0-124-93-207-219-207-131 0-250 92-250 270V0H158" id="aC"/><path d="M338-1490V0H158v-1490h180" id="aD"/><g id="f"><use transform="matrix(0.010850694444444444,0,0,0.010850694444444444,0,0)" xlink:href="#ao"/><use transform="matrix(0.010850694444444444,0,0,0.010850694444444444,12.955729166666666,0)" xlink:href="#aC"/><use transform="matrix(0.010850694444444444,0,0,0.010850694444444444,32.421875,0)" xlink:href="#ar"/><use transform="matrix(0.010850694444444444,0,0,0.010850694444444444,44.90017361111111,0)" xlink:href="#ax"/><use transform="matrix(0.010850694444444444,0,0,0.010850694444444444,50.28211805555556,0)" xlink:href="#aD"/></g><path d="M158 418v-1536h174v179h20c37-59 106-193 324-193 279 0 474 222 474 576 0 356-194 580-473 580-213 0-288-135-325-197h-14v591H158zm492-555c209 0 317-186 317-421 0-232-105-413-317-413-206 0-314 166-314 413 0 249 111 421 314 421" id="aE"/><path d="M409 0L70-1118h191c89 329 165 560 243 925 75-353 154-601 240-925h192c85 325 161 564 235 922 77-354 157-598 244-922h191L1267 0h-179c-86-307-176-590-250-913C763-588 675-308 588 0H409" id="aF"/><g id="g"><use transform="matrix(0.010850694444444444,0,0,0.010850694444444444,0,0)" xlink:href="#aE"/><use transform="matrix(0.010850694444444444,0,0,0.010850694444444444,13.823784722222221,0)" xlink:href="#ar"/><use transform="matrix(0.010850694444444444,0,0,0.010850694444444444,26.302083333333332,0)" xlink:href="#an"/><use transform="matrix(0.010850694444444444,0,0,0.010850694444444444,38.03168402777778,0)" xlink:href="#an"/><use transform="matrix(0.010850694444444444,0,0,0.010850694444444444,49.76128472222222,0)" xlink:href="#aF"/><use transform="matrix(0.010850694444444444,0,0,0.010850694444444444,67.54557291666667,0)" xlink:href="#ay"/><use transform="matrix(0.010850694444444444,0,0,0.010850694444444444,80.87022569444444,0)" xlink:href="#ap"/><use transform="matrix(0.010850694444444444,0,0,0.010850694444444444,88.8671875,0)" xlink:href="#as"/></g><g id="h"><use transform="matrix(0.010850694444444444,0,0,0.010850694444444444,0,0)" xlink:href="#az"/><use transform="matrix(0.010850694444444444,0,0,0.010850694444444444,13.129340277777777,0)" xlink:href="#ar"/><use transform="matrix(0.010850694444444444,0,0,0.010850694444444444,25.60763888888889,0)" xlink:href="#aC"/><use transform="matrix(0.010850694444444444,0,0,0.010850694444444444,45.07378472222221,0)" xlink:href="#ao"/></g><path d="M677 24c-213 0-288-135-325-197h-20V0H158v-1490h180v551h14c37-59 106-193 324-193 279 0 474 222 474 576 0 356-194 580-473 580zm-27-161c209 0 317-186 317-421 0-232-105-413-317-413-206 0-314 166-314 413 0 249 111 421 314 421" id="aG"/><g id="i"><use transform="matrix(0.010850694444444444,0,0,0.010850694444444444,0,0)" xlink:href="#aG"/><use transform="matrix(0.010850694444444444,0,0,0.010850694444444444,13.823784722222221,0)" xlink:href="#ar"/><use transform="matrix(0.010850694444444444,0,0,0.010850694444444444,26.302083333333332,0)" xlink:href="#aD"/><use transform="matrix(0.010850694444444444,0,0,0.010850694444444444,31.684027777777775,0)" xlink:href="#ar"/><use transform="matrix(0.010850694444444444,0,0,0.010850694444444444,44.162326388888886,0)" xlink:href="#az"/><use transform="matrix(0.010850694444444444,0,0,0.010850694444444444,57.291666666666664,0)" xlink:href="#av"/><use transform="matrix(0.010850694444444444,0,0,0.010850694444444444,69.98697916666666,0)" xlink:href="#ao"/></g><path d="M157-1118h181V80c1 225-123 350-364 338V252c126 9 184-48 183-172v-1198zm91-183c-68 0-125-53-125-119s57-119 125-119c69 0 126 53 126 119s-57 119-126 119" id="aH"/><g id="j"><use transform="matrix(0.010850694444444444,0,0,0.010850694444444444,0,0)" xlink:href="#aH"/><use transform="matrix(0.010850694444444444,0,0,0.010850694444444444,5.381944444444445,0)" xlink:href="#ay"/><use transform="matrix(0.010850694444444444,0,0,0.010850694444444444,18.70659722222222,0)" xlink:href="#ax"/><use transform="matrix(0.010850694444444444,0,0,0.010850694444444444,24.088541666666664,0)" xlink:href="#az"/><use transform="matrix(0.010850694444444444,0,0,0.010850694444444444,37.21788194444444,0)" xlink:href="#aB"/><use transform="matrix(0.010850694444444444,0,0,0.010850694444444444,47.35243055555556,0)" xlink:href="#as"/><use transform="matrix(0.010850694444444444,0,0,0.010850694444444444,60.959201388888886,0)" xlink:href="#ar"/><use transform="matrix(0.010850694444444444,0,0,0.010850694444444444,73.4375,0)" xlink:href="#aw"/><use transform="matrix(0.010850694444444444,0,0,0.010850694444444444,80.49045138888889,0)" xlink:href="#ao"/></g><path d="M370-1490V0H180v-1490h190" id="aI"/><path d="M645 0H180v-1490h484c435 0 692 280 692 742 0 466-257 748-711 748zM370-168h263c363 0 539-218 539-580 0-358-176-574-521-574H370v1154" id="aJ"/><g id="k"><use transform="matrix(0.010850694444444444,0,0,0.010850694444444444,0,0)" xlink:href="#aA"/><use transform="matrix(0.010850694444444444,0,0,0.010850694444444444,16.23263888888889,0)" xlink:href="#ar"/><use transform="matrix(0.010850694444444444,0,0,0.010850694444444444,28.7109375,0)" xlink:href="#ap"/><use transform="matrix(0.010850694444444444,0,0,0.010850694444444444,36.70789930555556,0)" xlink:href="#as"/><use transform="matrix(0.010850694444444444,0,0,0.010850694444444444,50.314670138888886,0)" xlink:href="#aB"/><use transform="matrix(0.010850694444444444,0,0,0.010850694444444444,61.19791666666666,0)" xlink:href="#aI"/><use transform="matrix(0.010850694444444444,0,0,0.010850694444444444,67.1657986111111,0)" xlink:href="#aJ"/><path d="M-1.1 4.54H84.3v1.52H-1.1z"/></g><path d="M140 405l46-156c120 36 205 19 263-150l32-93L54-1118h197c107 313 237 620 324 950 87-331 219-637 326-950h196L606 167c-68 178-176 259-334 259-64 0-113-12-132-21" id="aK"/><g id="l"><use transform="matrix(0.010850694444444444,0,0,0.010850694444444444,0,0)" xlink:href="#aq"/><use transform="matrix(0.010850694444444444,0,0,0.010850694444444444,12.955729166666666,0)" xlink:href="#aK"/><use transform="matrix(0.010850694444444444,0,0,0.010850694444444444,25.44487847222222,0)" xlink:href="#aE"/><use transform="matrix(0.010850694444444444,0,0,0.010850694444444444,39.05164930555556,0)" xlink:href="#ao"/></g><path d="M180 0v-1490h510c348 0 508 194 508 460 0 198-88 351-276 417L1256 0h-220L726-579c-117 2-238 0-356 1V0H180zm190-747h312c235 0 327-108 327-283 0-177-92-293-329-293H370v576" id="aL"/><g id="m"><use transform="matrix(0.010850694444444444,0,0,0.010850694444444444,0,0)" xlink:href="#aL"/><use transform="matrix(0.010850694444444444,0,0,0.010850694444444444,14.192708333333332,0)" xlink:href="#ar"/><use transform="matrix(0.010850694444444444,0,0,0.010850694444444444,26.671006944444443,0)" xlink:href="#ap"/><use transform="matrix(0.010850694444444444,0,0,0.010850694444444444,35.38411458333333,0)" xlink:href="#ax"/><use transform="matrix(0.010850694444444444,0,0,0.010850694444444444,40.76605902777777,0)" xlink:href="#aw"/><use transform="matrix(0.010850694444444444,0,0,0.010850694444444444,48.47005208333333,0)" xlink:href="#aK"/></g><path d="M180 0v-1490h224l606 953c40 63 108 177 176 312-27-437-7-821-13-1265h190V0h-226C860-448 622-778 356-1262c27 476 11 792 15 1262H180" id="aM"/><g id="n"><use transform="matrix(0.010850694444444444,0,0,0.010850694444444444,0,0)" xlink:href="#aM"/><use transform="matrix(0.010850694444444444,0,0,0.010850694444444444,16.74262152777778,0)" xlink:href="#ar"/><use transform="matrix(0.010850694444444444,0,0,0.010850694444444444,29.22092013888889,0)" xlink:href="#aC"/><use transform="matrix(0.010850694444444444,0,0,0.010850694444444444,48.68706597222222,0)" xlink:href="#ao"/></g><path d="M600 0L52-1490h200c166 485 304 806 458 1336 156-533 285-846 449-1336h202L819 0H600" id="aN"/><g id="o"><use transform="matrix(0.010850694444444444,0,0,0.010850694444444444,0,0)" xlink:href="#aN"/><use transform="matrix(0.010850694444444444,0,0,0.010850694444444444,14.20355902777778,0)" xlink:href="#ar"/><use transform="matrix(0.010850694444444444,0,0,0.010850694444444444,26.68185763888889,0)" xlink:href="#aD"/><use transform="matrix(0.010850694444444444,0,0,0.010850694444444444,32.063802083333336,0)" xlink:href="#au"/><use transform="matrix(0.010850694444444444,0,0,0.010850694444444444,45.20399305555556,0)" xlink:href="#ao"/></g><g id="p"><use transform="matrix(0.010850694444444444,0,0,0.010850694444444444,0,0)" xlink:href="#at"/><use transform="matrix(0.010850694444444444,0,0,0.010850694444444444,15.33203125,0)" xlink:href="#au"/><use transform="matrix(0.010850694444444444,0,0,0.010850694444444444,28.47222222222222,0)" xlink:href="#av"/><use transform="matrix(0.010850694444444444,0,0,0.010850694444444444,41.16753472222222,0)" xlink:href="#aw"/><use transform="matrix(0.010850694444444444,0,0,0.010850694444444444,48.4375,0)" xlink:href="#ax"/><use transform="matrix(0.010850694444444444,0,0,0.010850694444444444,53.81944444444444,0)" xlink:href="#ay"/><use transform="matrix(0.010850694444444444,0,0,0.010850694444444444,67.14409722222221,0)" xlink:href="#az"/><use transform="matrix(0.010850694444444444,0,0,0.010850694444444444,80.27343749999999,0)" xlink:href="#aB"/><use transform="matrix(0.010850694444444444,0,0,0.010850694444444444,91.15668402777777,0)" xlink:href="#aI"/><use transform="matrix(0.010850694444444444,0,0,0.010850694444444444,97.12456597222221,0)" xlink:href="#aJ"/><path d="M-1.1 4.54h115.37v1.52H-1.1z"/></g><g id="q"><use transform="matrix(0.010850694444444444,0,0,0.010850694444444444,0,0)" xlink:href="#az"/><use transform="matrix(0.010850694444444444,0,0,0.010850694444444444,13.129340277777777,0)" xlink:href="#ay"/><use transform="matrix(0.010850694444444444,0,0,0.010850694444444444,26.453993055555554,0)" xlink:href="#ap"/><use transform="matrix(0.010850694444444444,0,0,0.010850694444444444,35.16710069444444,0)" xlink:href="#aC"/><use transform="matrix(0.010850694444444444,0,0,0.010850694444444444,54.63324652777778,0)" xlink:href="#ar"/><use transform="matrix(0.010850694444444444,0,0,0.010850694444444444,67.11154513888889,0)" xlink:href="#aD"/></g><path d="M338-670V0H158v-1490h180v566c73-149 190-208 336-208 226 0 379 139 379 422V0H872v-695c0-172-96-275-252-275-161 0-282 109-282 300" id="aO"/><path d="M611 442c-248 0-391-105-460-228l146-94c47 65 117 165 314 165 178 0 307-82 307-266v-224h-17C863-141 792-18 576-18c-268 0-472-195-472-546 0-346 197-568 476-568 216 0 288 133 326 193h17v-179h175V29c0 289-215 413-487 413zm-5-620c203 0 314-146 314-390 0-237-108-403-314-403-213 0-319 180-319 403 0 230 109 390 319 390" id="aP"/><g id="r"><use transform="matrix(0.010850694444444444,0,0,0.010850694444444444,0,0)" xlink:href="#aO"/><use transform="matrix(0.010850694444444444,0,0,0.010850694444444444,13.140190972222221,0)" xlink:href="#ay"/><use transform="matrix(0.010850694444444444,0,0,0.010850694444444444,26.46484375,0)" xlink:href="#aD"/><use transform="matrix(0.010850694444444444,0,0,0.010850694444444444,31.846788194444443,0)" xlink:href="#ay"/><use transform="matrix(0.010850694444444444,0,0,0.010850694444444444,45.17144097222222,0)" xlink:href="#aP"/><use transform="matrix(0.010850694444444444,0,0,0.010850694444444444,58.79991319444444,0)" xlink:href="#ap"/><use transform="matrix(0.010850694444444444,0,0,0.010850694444444444,67.16579861111111,0)" xlink:href="#ar"/><use transform="matrix(0.010850694444444444,0,0,0.010850694444444444,79.64409722222223,0)" xlink:href="#aE"/><use transform="matrix(0.010850694444444444,0,0,0.010850694444444444,93.25086805555556,0)" xlink:href="#aO"/><use transform="matrix(0.010850694444444444,0,0,0.010850694444444444,106.39105902777777,0)" xlink:href="#ax"/><use transform="matrix(0.010850694444444444,0,0,0.010850694444444444,111.77300347222221,0)" xlink:href="#av"/></g><g id="s"><use transform="matrix(0.010850694444444444,0,0,0.010850694444444444,0,0)" xlink:href="#aP"/><use transform="matrix(0.010850694444444444,0,0,0.010850694444444444,13.628472222222221,0)" xlink:href="#ay"/><use transform="matrix(0.010850694444444444,0,0,0.010850694444444444,26.953125,0)" xlink:href="#aD"/><use transform="matrix(0.010850694444444444,0,0,0.010850694444444444,32.33506944444444,0)" xlink:href="#as"/><use transform="matrix(0.010850694444444444,0,0,0.010850694444444444,45.94184027777778,0)" xlink:href="#ao"/><use transform="matrix(0.010850694444444444,0,0,0.010850694444444444,58.897569444444436,0)" xlink:href="#az"/></g><path d="M657 26c-323 0-524-166-541-416h195c15 169 171 246 346 246 202 0 356-106 356-265 5-203-294-238-475-293-239-73-380-191-380-389 0-252 224-419 512-419 294 0 499 171 508 396H992c-17-145-151-228-328-228-193 0-321 102-321 242 0 156 175 211 284 241l149 41c160 44 422 134 422 412 0 244-197 432-541 432" id="aQ"/><g id="t"><use transform="matrix(0.010850694444444444,0,0,0.010850694444444444,0,0)" xlink:href="#aQ"/><use transform="matrix(0.010850694444444444,0,0,0.010850694444444444,14.2578125,0)" xlink:href="#aw"/><use transform="matrix(0.010850694444444444,0,0,0.010850694444444444,21.63628472222222,0)" xlink:href="#ar"/><use transform="matrix(0.010850694444444444,0,0,0.010850694444444444,34.11458333333333,0)" xlink:href="#ap"/><use transform="matrix(0.010850694444444444,0,0,0.010850694444444444,42.827690972222214,0)" xlink:href="#aw"/><use transform="matrix(0.010850694444444444,0,0,0.010850694444444444,50.097656249999986,0)" xlink:href="#aB"/><use transform="matrix(0.010850694444444444,0,0,0.010850694444444444,58.97352430555554,0)" xlink:href="#aq"/><use transform="matrix(0.010850694444444444,0,0,0.010850694444444444,73.3181423611111,0)" xlink:href="#ax"/><use transform="matrix(0.010850694444444444,0,0,0.010850694444444444,78.70008680555554,0)" xlink:href="#aC"/><use transform="matrix(0.010850694444444444,0,0,0.010850694444444444,98.16623263888887,0)" xlink:href="#ao"/></g><g id="u"><use transform="matrix(0.010850694444444444,0,0,0.010850694444444444,0,0)" xlink:href="#as"/><use transform="matrix(0.010850694444444444,0,0,0.010850694444444444,13.606770833333332,0)" xlink:href="#ar"/><use transform="matrix(0.010850694444444444,0,0,0.010850694444444444,26.085069444444443,0)" xlink:href="#aw"/><use transform="matrix(0.010850694444444444,0,0,0.010850694444444444,33.13802083333333,0)" xlink:href="#ao"/></g><g id="v"><use transform="matrix(0.010850694444444444,0,0,0.010850694444444444,0,0)" xlink:href="#an"/><use transform="matrix(0.010850694444444444,0,0,0.010850694444444444,11.729600694444445,0)" xlink:href="#aw"/><use transform="matrix(0.010850694444444444,0,0,0.010850694444444444,19.108072916666668,0)" xlink:href="#ar"/><use transform="matrix(0.010850694444444444,0,0,0.010850694444444444,31.586371527777775,0)" xlink:href="#aw"/><use transform="matrix(0.010850694444444444,0,0,0.010850694444444444,38.85633680555556,0)" xlink:href="#au"/><use transform="matrix(0.010850694444444444,0,0,0.010850694444444444,51.99652777777778,0)" xlink:href="#an"/></g><path d="M458 0L52-1490h194c108 439 233 855 324 1313 92-459 221-873 331-1313h216c110 438 234 854 330 1307 92-455 216-869 323-1307h196L1558 0h-221l-256-944c-26-95-50-200-73-331-22 122-44 223-73 331L680 0H458" id="aR"/><g id="w"><use transform="matrix(0.010850694444444444,0,0,0.010850694444444444,0,0)" xlink:href="#aR"/><use transform="matrix(0.010850694444444444,0,0,0.010850694444444444,21.89670138888889,0)" xlink:href="#ax"/><use transform="matrix(0.010850694444444444,0,0,0.010850694444444444,27.278645833333336,0)" xlink:href="#an"/><use transform="matrix(0.010850694444444444,0,0,0.010850694444444444,39.00824652777778,0)" xlink:href="#aO"/><use transform="matrix(0.010850694444444444,0,0,0.010850694444444444,52.1484375,0)" xlink:href="#aD"/><use transform="matrix(0.010850694444444444,0,0,0.010850694444444444,57.53038194444444,0)" xlink:href="#ax"/><use transform="matrix(0.010850694444444444,0,0,0.010850694444444444,62.912326388888886,0)" xlink:href="#an"/><use transform="matrix(0.010850694444444444,0,0,0.010850694444444444,74.64192708333333,0)" xlink:href="#aw"/></g><g id="x"><use transform="matrix(0.010850694444444444,0,0,0.010850694444444444,0,0)" xlink:href="#as"/><use transform="matrix(0.010850694444444444,0,0,0.010850694444444444,13.606770833333332,0)" xlink:href="#ar"/><use transform="matrix(0.010850694444444444,0,0,0.010850694444444444,26.085069444444443,0)" xlink:href="#aw"/><use transform="matrix(0.010850694444444444,0,0,0.010850694444444444,33.13802083333333,0)" xlink:href="#ao"/><use transform="matrix(0.010850694444444444,0,0,0.010850694444444444,46.093749999999986,0)" xlink:href="#aB"/><use transform="matrix(0.010850694444444444,0,0,0.010850694444444444,56.2282986111111,0)" xlink:href="#av"/><use transform="matrix(0.010850694444444444,0,0,0.010850694444444444,68.9236111111111,0)" xlink:href="#ap"/><use transform="matrix(0.010850694444444444,0,0,0.010850694444444444,76.92057291666666,0)" xlink:href="#ao"/><use transform="matrix(0.010850694444444444,0,0,0.010850694444444444,90.09331597222221,0)" xlink:href="#ar"/><use transform="matrix(0.010850694444444444,0,0,0.010850694444444444,102.57161458333333,0)" xlink:href="#aw"/><use transform="matrix(0.010850694444444444,0,0,0.010850694444444444,109.62456597222221,0)" xlink:href="#ao"/><use transform="matrix(0.010850694444444444,0,0,0.010850694444444444,122.58029513888889,0)" xlink:href="#as"/></g><path d="M180 0v-1490h908v168H370v486h669v168H370v500h727V0H180" id="aS"/><g id="y"><use transform="matrix(0.010850694444444444,0,0,0.010850694444444444,0,0)" xlink:href="#aS"/><use transform="matrix(0.010850694444444444,0,0,0.010850694444444444,13.35720486111111,0)" xlink:href="#az"/><use transform="matrix(0.010850694444444444,0,0,0.010850694444444444,26.48654513888889,0)" xlink:href="#as"/><use transform="matrix(0.010850694444444444,0,0,0.010850694444444444,40.093315972222214,0)" xlink:href="#aB"/><use transform="matrix(0.010850694444444444,0,0,0.010850694444444444,48.96918402777778,0)" xlink:href="#aq"/><use transform="matrix(0.010850694444444444,0,0,0.010850694444444444,63.31380208333333,0)" xlink:href="#ax"/><use transform="matrix(0.010850694444444444,0,0,0.010850694444444444,68.69574652777777,0)" xlink:href="#aC"/><use transform="matrix(0.010850694444444444,0,0,0.010850694444444444,88.1618923611111,0)" xlink:href="#ao"/></g><path d="M481 0L54-1118h197c107 314 236 620 325 951 87-331 217-637 324-951h197L670 0H481" id="aT"/><g id="z"><use transform="matrix(0.010850694444444444,0,0,0.010850694444444444,0,0)" xlink:href="#aI"/><use transform="matrix(0.010850694444444444,0,0,0.010850694444444444,5.967881944444445,0)" xlink:href="#az"/><use transform="matrix(0.010850694444444444,0,0,0.010850694444444444,18.77170138888889,0)" xlink:href="#aT"/><use transform="matrix(0.010850694444444444,0,0,0.010850694444444444,30.826822916666664,0)" xlink:href="#ay"/><use transform="matrix(0.010850694444444444,0,0,0.010850694444444444,44.15147569444444,0)" xlink:href="#aD"/><use transform="matrix(0.010850694444444444,0,0,0.010850694444444444,49.64192708333333,0)" xlink:href="#aT"/><use transform="matrix(0.010850694444444444,0,0,0.010850694444444444,61.69704861111111,0)" xlink:href="#ao"/><use transform="matrix(0.010850694444444444,0,0,0.010850694444444444,74.65277777777777,0)" xlink:href="#an"/></g><path d="M180 0v-1490h528c311 0 458 177 458 395 0 191-114 278-244 313v14c139 9 302 137 302 371 0 225-148 397-499 397H180zm190-168h350c232 0 321-102 321-231 0-149-120-277-311-277H370v508zm0-668h328c160 0 286-101 286-255 0-129-87-231-280-231H370v486" id="aU"/><g id="A"><use transform="matrix(0.010850694444444444,0,0,0.010850694444444444,0,0)" xlink:href="#aQ"/><use transform="matrix(0.010850694444444444,0,0,0.010850694444444444,14.2578125,0)" xlink:href="#aw"/><use transform="matrix(0.010850694444444444,0,0,0.010850694444444444,21.63628472222222,0)" xlink:href="#ar"/><use transform="matrix(0.010850694444444444,0,0,0.010850694444444444,34.11458333333333,0)" xlink:href="#ap"/><use transform="matrix(0.010850694444444444,0,0,0.010850694444444444,42.827690972222214,0)" xlink:href="#aw"/><use transform="matrix(0.010850694444444444,0,0,0.010850694444444444,50.097656249999986,0)" xlink:href="#ax"/><use transform="matrix(0.010850694444444444,0,0,0.010850694444444444,55.479600694444436,0)" xlink:href="#az"/><use transform="matrix(0.010850694444444444,0,0,0.010850694444444444,68.60894097222221,0)" xlink:href="#aP"/><use transform="matrix(0.010850694444444444,0,0,0.010850694444444444,82.23741319444443,0)" xlink:href="#aB"/><use transform="matrix(0.010850694444444444,0,0,0.010850694444444444,93.12065972222221,0)" xlink:href="#aU"/><use transform="matrix(0.010850694444444444,0,0,0.010850694444444444,107.66059027777777,0)" xlink:href="#ax"/><use transform="matrix(0.010850694444444444,0,0,0.010850694444444444,113.04253472222221,0)" xlink:href="#as"/></g><g id="B"><use transform="matrix(0.010850694444444444,0,0,0.010850694444444444,0,0)" xlink:href="#aF"/><use transform="matrix(0.010850694444444444,0,0,0.010850694444444444,18.18576388888889,0)" xlink:href="#ax"/><use transform="matrix(0.010850694444444444,0,0,0.010850694444444444,23.567708333333336,0)" xlink:href="#an"/><use transform="matrix(0.010850694444444444,0,0,0.010850694444444444,35.29730902777778,0)" xlink:href="#aO"/><use transform="matrix(0.010850694444444444,0,0,0.010850694444444444,48.4375,0)" xlink:href="#aD"/><use transform="matrix(0.010850694444444444,0,0,0.010850694444444444,53.81944444444444,0)" xlink:href="#ax"/><use transform="matrix(0.010850694444444444,0,0,0.010850694444444444,59.201388888888886,0)" xlink:href="#an"/><use transform="matrix(0.010850694444444444,0,0,0.010850694444444444,70.93098958333333,0)" xlink:href="#aw"/><use transform="matrix(0.010850694444444444,0,0,0.010850694444444444,78.2009548611111,0)" xlink:href="#aB"/><use transform="matrix(0.010850694444444444,0,0,0.010850694444444444,89.08420138888889,0)" xlink:href="#ax"/><use transform="matrix(0.010850694444444444,0,0,0.010850694444444444,94.46614583333333,0)" xlink:href="#as"/><path d="M-1.1 4.54h110.3v1.52H-1.1z"/></g><g id="C"><use transform="matrix(0.010850694444444444,0,0,0.010850694444444444,0,0)" xlink:href="#aq"/><use transform="matrix(0.010850694444444444,0,0,0.010850694444444444,14.344618055555555,0)" xlink:href="#ax"/><use transform="matrix(0.010850694444444444,0,0,0.010850694444444444,19.7265625,0)" xlink:href="#aC"/><use transform="matrix(0.010850694444444444,0,0,0.010850694444444444,39.19270833333333,0)" xlink:href="#ao"/><use transform="matrix(0.010850694444444444,0,0,0.010850694444444444,52.148437499999986,0)" xlink:href="#an"/><use transform="matrix(0.010850694444444444,0,0,0.010850694444444444,63.878038194444436,0)" xlink:href="#aw"/><use transform="matrix(0.010850694444444444,0,0,0.010850694444444444,71.25651041666666,0)" xlink:href="#ar"/><use transform="matrix(0.010850694444444444,0,0,0.010850694444444444,83.73480902777777,0)" xlink:href="#aC"/><use transform="matrix(0.010850694444444444,0,0,0.010850694444444444,103.20095486111111,0)" xlink:href="#aE"/></g><g id="D"><use transform="matrix(0.010850694444444444,0,0,0.010850694444444444,0,0)" xlink:href="#aU"/><use transform="matrix(0.010850694444444444,0,0,0.010850694444444444,14.539930555555555,0)" xlink:href="#ar"/><use transform="matrix(0.010850694444444444,0,0,0.010850694444444444,27.018229166666664,0)" xlink:href="#aw"/><use transform="matrix(0.010850694444444444,0,0,0.010850694444444444,33.74565972222222,0)" xlink:href="#aw"/><use transform="matrix(0.010850694444444444,0,0,0.010850694444444444,41.015625,0)" xlink:href="#aD"/><use transform="matrix(0.010850694444444444,0,0,0.010850694444444444,46.39756944444444,0)" xlink:href="#ao"/></g><g id="E"><use transform="matrix(0.010850694444444444,0,0,0.010850694444444444,0,0)" xlink:href="#aG"/><use transform="matrix(0.010850694444444444,0,0,0.010850694444444444,13.606770833333332,0)" xlink:href="#ao"/><use transform="matrix(0.010850694444444444,0,0,0.010850694444444444,26.5625,0)" xlink:href="#aw"/><use transform="matrix(0.010850694444444444,0,0,0.010850694444444444,33.83246527777778,0)" xlink:href="#aB"/><use transform="matrix(0.010850694444444444,0,0,0.010850694444444444,44.71571180555556,0)" xlink:href="#ax"/><use transform="matrix(0.010850694444444444,0,0,0.010850694444444444,50.09765625,0)" xlink:href="#as"/><path d="M-1.1 4.54H64.8v1.52H-1.1z"/></g><g id="F"><use transform="matrix(0.010850694444444444,0,0,0.010850694444444444,0,0)" xlink:href="#ar"/><use transform="matrix(0.010850694444444444,0,0,0.010850694444444444,12.47829861111111,0)" xlink:href="#aC"/><use transform="matrix(0.010850694444444444,0,0,0.010850694444444444,31.944444444444443,0)" xlink:href="#ay"/><use transform="matrix(0.010850694444444444,0,0,0.010850694444444444,45.26909722222222,0)" xlink:href="#au"/><use transform="matrix(0.010850694444444444,0,0,0.010850694444444444,58.40928819444444,0)" xlink:href="#az"/><use transform="matrix(0.010850694444444444,0,0,0.010850694444444444,71.53862847222221,0)" xlink:href="#aw"/></g><g id="G"><use transform="matrix(0.010850694444444444,0,0,0.010850694444444444,0,0)" xlink:href="#aO"/><use transform="matrix(0.010850694444444444,0,0,0.010850694444444444,13.140190972222221,0)" xlink:href="#ay"/><use transform="matrix(0.010850694444444444,0,0,0.010850694444444444,26.46484375,0)" xlink:href="#an"/><use transform="matrix(0.010850694444444444,0,0,0.010850694444444444,38.19444444444444,0)" xlink:href="#aw"/><use transform="matrix(0.010850694444444444,0,0,0.010850694444444444,45.24739583333333,0)" xlink:href="#an"/></g><g id="H"><use transform="matrix(0.010850694444444444,0,0,0.010850694444444444,0,0)" xlink:href="#av"/><use transform="matrix(0.010850694444444444,0,0,0.010850694444444444,12.6953125,0)" xlink:href="#aO"/><use transform="matrix(0.010850694444444444,0,0,0.010850694444444444,25.83550347222222,0)" xlink:href="#ar"/><use transform="matrix(0.010850694444444444,0,0,0.010850694444444444,38.31380208333333,0)" xlink:href="#aD"/><use transform="matrix(0.010850694444444444,0,0,0.010850694444444444,43.69574652777777,0)" xlink:href="#aD"/><use transform="matrix(0.010850694444444444,0,0,0.010850694444444444,49.07769097222221,0)" xlink:href="#ar"/><use transform="matrix(0.010850694444444444,0,0,0.010850694444444444,61.55598958333333,0)" xlink:href="#az"/><use transform="matrix(0.010850694444444444,0,0,0.010850694444444444,74.6853298611111,0)" xlink:href="#aP"/><use transform="matrix(0.010850694444444444,0,0,0.010850694444444444,88.31380208333331,0)" xlink:href="#ao"/></g><g id="I"><use transform="matrix(0.010850694444444444,0,0,0.010850694444444444,0,0)" xlink:href="#av"/><use transform="matrix(0.010850694444444444,0,0,0.010850694444444444,12.6953125,0)" xlink:href="#aO"/><use transform="matrix(0.010850694444444444,0,0,0.010850694444444444,25.83550347222222,0)" xlink:href="#ar"/><use transform="matrix(0.010850694444444444,0,0,0.010850694444444444,38.31380208333333,0)" xlink:href="#aw"/></g><path d="M180 0v-1490h510c348 0 508 209 508 474 0 266-160 477-507 477H370V0H180zm190-706h312c236 0 327-133 327-310 0-176-91-307-329-307H370v617" id="aV"/><g id="J"><use transform="matrix(0.009765625,0,0,0.009765625,0,0)" xlink:href="#aV"/><use transform="matrix(0.009765625,0,0,0.009765625,12.7734375,0)" xlink:href="#ar"/><use transform="matrix(0.009765625,0,0,0.009765625,24.00390625,0)" xlink:href="#ap"/><use transform="matrix(0.009765625,0,0,0.009765625,31.845703125,0)" xlink:href="#aw"/><use transform="matrix(0.009765625,0,0,0.009765625,38.388671875,0)" xlink:href="#ax"/><use transform="matrix(0.009765625,0,0,0.009765625,43.232421875,0)" xlink:href="#av"/><use transform="matrix(0.009765625,0,0,0.009765625,54.658203125,0)" xlink:href="#ax"/><use transform="matrix(0.009765625,0,0,0.009765625,59.501953125,0)" xlink:href="#aE"/><use transform="matrix(0.009765625,0,0,0.009765625,71.943359375,0)" xlink:href="#ar"/><use transform="matrix(0.009765625,0,0,0.009765625,83.173828125,0)" xlink:href="#aw"/><use transform="matrix(0.009765625,0,0,0.009765625,89.521484375,0)" xlink:href="#ao"/><use transform="matrix(0.009765625,0,0,0.009765625,101.181640625,0)" xlink:href="#an"/><use transform="matrix(0.009765625,0,0,0.009765625,111.73828125,0)" xlink:href="#aB"/><use transform="matrix(0.009765625,0,0,0.009765625,121.533203125,0)" xlink:href="#ax"/><use transform="matrix(0.009765625,0,0,0.009765625,126.376953125,0)" xlink:href="#az"/></g><path d="M180 0v-1490h190v644h782v-644h190V0h-190v-678H370V0H180" id="aW"/><g id="K"><use transform="matrix(0.010850694444444444,0,0,0.010850694444444444,0,0)" xlink:href="#aW"/><use transform="matrix(0.010850694444444444,0,0,0.010850694444444444,16.514756944444443,0)" xlink:href="#ar"/><use transform="matrix(0.010850694444444444,0,0,0.010850694444444444,28.993055555555554,0)" xlink:href="#an"/></g><g id="L"><use transform="matrix(0.010850694444444444,0,0,0.010850694444444444,0,0)" xlink:href="#aA"/><use transform="matrix(0.010850694444444444,0,0,0.010850694444444444,16.23263888888889,0)" xlink:href="#ay"/><use transform="matrix(0.010850694444444444,0,0,0.010850694444444444,29.557291666666664,0)" xlink:href="#az"/><use transform="matrix(0.010850694444444444,0,0,0.010850694444444444,42.68663194444444,0)" xlink:href="#aw"/><use transform="matrix(0.010850694444444444,0,0,0.010850694444444444,50.065104166666664,0)" xlink:href="#ar"/><use transform="matrix(0.010850694444444444,0,0,0.010850694444444444,62.54340277777778,0)" xlink:href="#ax"/><use transform="matrix(0.010850694444444444,0,0,0.010850694444444444,67.92534722222221,0)" xlink:href="#az"/><use transform="matrix(0.010850694444444444,0,0,0.010850694444444444,81.05468749999999,0)" xlink:href="#an"/></g><g id="M"><use transform="matrix(0.008680555555555556,0,0,0.008680555555555556,0,0)" xlink:href="#ax"/><use transform="matrix(0.008680555555555556,0,0,0.008680555555555556,4.305555555555555,0)" xlink:href="#an"/><use transform="matrix(0.008680555555555556,0,0,0.008680555555555556,13.689236111111109,0)" xlink:href="#aB"/><use transform="matrix(0.008680555555555556,0,0,0.008680555555555556,21.796875,0)" xlink:href="#ar"/><use transform="matrix(0.008680555555555556,0,0,0.008680555555555556,31.77951388888889,0)" xlink:href="#au"/><use transform="matrix(0.008680555555555556,0,0,0.008680555555555556,42.29166666666667,0)" xlink:href="#av"/><use transform="matrix(0.008680555555555556,0,0,0.008680555555555556,52.44791666666667,0)" xlink:href="#aw"/><use transform="matrix(0.008680555555555556,0,0,0.008680555555555556,58.26388888888889,0)" xlink:href="#ax"/><use transform="matrix(0.008680555555555556,0,0,0.008680555555555556,62.56944444444445,0)" xlink:href="#ay"/><use transform="matrix(0.008680555555555556,0,0,0.008680555555555556,73.22916666666667,0)" xlink:href="#az"/><use transform="matrix(0.008680555555555556,0,0,0.008680555555555556,83.73263888888889,0)" xlink:href="#as"/><use transform="matrix(0.008680555555555556,0,0,0.008680555555555556,94.61805555555557,0)" xlink:href="#aB"/><use transform="matrix(0.008680555555555556,0,0,0.008680555555555556,103.32465277777779,0)" xlink:href="#ax"/><use transform="matrix(0.008680555555555556,0,0,0.008680555555555556,107.63020833333334,0)" xlink:href="#az"/></g><path d="M784 20c-382 0-662-292-662-764 0-473 280-766 662-766s660 293 660 766c0 472-278 764-660 764zm0-176c266 0 475-207 475-588 0-383-209-590-475-590-268 0-477 208-477 590 0 380 209 588 477 588" id="aX"/><g id="N"><use transform="matrix(0.010850694444444444,0,0,0.010850694444444444,0,0)" xlink:href="#aX"/><use transform="matrix(0.010850694444444444,0,0,0.010850694444444444,16.9921875,0)" xlink:href="#aF"/><use transform="matrix(0.010850694444444444,0,0,0.010850694444444444,35.177951388888886,0)" xlink:href="#az"/><use transform="matrix(0.010850694444444444,0,0,0.010850694444444444,48.307291666666664,0)" xlink:href="#an"/></g><g id="O"><use transform="matrix(0.010850694444444444,0,0,0.010850694444444444,0,0)" xlink:href="#aU"/><use transform="matrix(0.010850694444444444,0,0,0.010850694444444444,14.539930555555555,0)" xlink:href="#ax"/><use transform="matrix(0.010850694444444444,0,0,0.010850694444444444,19.921875,0)" xlink:href="#as"/><use transform="matrix(0.010850694444444444,0,0,0.010850694444444444,33.52864583333333,0)" xlink:href="#an"/><use transform="matrix(0.010850694444444444,0,0,0.010850694444444444,45.25824652777778,0)" xlink:href="#aB"/><use transform="matrix(0.010850694444444444,0,0,0.010850694444444444,56.14149305555554,0)" xlink:href="#ax"/><use transform="matrix(0.010850694444444444,0,0,0.010850694444444444,61.523437499999986,0)" xlink:href="#az"/></g><path d="M653-1490V0H466v-1314h-10L96-1047v-204l324-239h233" id="aY"/><use transform="matrix(0.010850694444444444,0,0,0.010850694444444444,0,0)" xlink:href="#aY" id="P"/><path d="M180 0v-1490h270l367 940c28 72 75 218 110 339 35-117 81-264 110-339l362-940h271V0h-187c2-448-5-837 7-1287-157 497-311 829-483 1287H842C666-458 514-784 354-1284c12 438 5 843 7 1284H180" id="aZ"/><use transform="matrix(0.010850694444444444,0,0,0.010850694444444444,0,0)" xlink:href="#aZ" id="Q"/><use transform="matrix(0.010850694444444444,0,0,0.010850694444444444,0,0)" xlink:href="#aM" id="R"/><g id="S"><use transform="matrix(0.010850694444444444,0,0,0.010850694444444444,0,0)" xlink:href="#aG"/><use transform="matrix(0.010850694444444444,0,0,0.010850694444444444,13.606770833333332,0)" xlink:href="#ax"/><use transform="matrix(0.010850694444444444,0,0,0.010850694444444444,18.98871527777778,0)" xlink:href="#as"/><use transform="matrix(0.010850694444444444,0,0,0.010850694444444444,32.595486111111114,0)" xlink:href="#aB"/><use transform="matrix(0.010850694444444444,0,0,0.010850694444444444,42.73003472222223,0)" xlink:href="#ar"/><use transform="matrix(0.010850694444444444,0,0,0.010850694444444444,55.20833333333334,0)" xlink:href="#aC"/><use transform="matrix(0.010850694444444444,0,0,0.010850694444444444,74.67447916666667,0)" xlink:href="#ay"/><use transform="matrix(0.010850694444444444,0,0,0.010850694444444444,87.99913194444444,0)" xlink:href="#au"/><use transform="matrix(0.010850694444444444,0,0,0.010850694444444444,101.13932291666666,0)" xlink:href="#az"/><use transform="matrix(0.010850694444444444,0,0,0.010850694444444444,114.26866319444441,0)" xlink:href="#aw"/></g><g id="T"><use transform="matrix(0.010850694444444444,0,0,0.010850694444444444,0,0)" xlink:href="#aw"/><use transform="matrix(0.010850694444444444,0,0,0.010850694444444444,7.269965277777778,0)" xlink:href="#ax"/><use transform="matrix(0.010850694444444444,0,0,0.010850694444444444,12.651909722222221,0)" xlink:href="#aC"/><use transform="matrix(0.010850694444444444,0,0,0.010850694444444444,32.11805555555556,0)" xlink:href="#ao"/><use transform="matrix(0.010850694444444444,0,0,0.010850694444444444,45.07378472222222,0)" xlink:href="#an"/><use transform="matrix(0.010850694444444444,0,0,0.010850694444444444,56.803385416666664,0)" xlink:href="#aw"/><use transform="matrix(0.010850694444444444,0,0,0.010850694444444444,64.18185763888889,0)" xlink:href="#ar"/><use transform="matrix(0.010850694444444444,0,0,0.010850694444444444,76.66015625,0)" xlink:href="#aC"/><use transform="matrix(0.010850694444444444,0,0,0.010850694444444444,96.12630208333333,0)" xlink:href="#aE"/></g><g id="U"><use transform="matrix(0.010850694444444444,0,0,0.010850694444444444,0,0)" xlink:href="#aw"/><use transform="matrix(0.010850694444444444,0,0,0.010850694444444444,7.269965277777778,0)" xlink:href="#ap"/><use transform="matrix(0.010850694444444444,0,0,0.010850694444444444,15.635850694444445,0)" xlink:href="#ar"/><use transform="matrix(0.010850694444444444,0,0,0.010850694444444444,28.114149305555554,0)" xlink:href="#as"/><use transform="matrix(0.010850694444444444,0,0,0.010850694444444444,41.720920138888886,0)" xlink:href="#ao"/><use transform="matrix(0.010850694444444444,0,0,0.010850694444444444,54.67664930555556,0)" xlink:href="#aB"/><use transform="matrix(0.010850694444444444,0,0,0.010850694444444444,65.55989583333333,0)" xlink:href="#ax"/><use transform="matrix(0.010850694444444444,0,0,0.010850694444444444,70.94184027777777,0)" xlink:href="#as"/><path d="M-1.1 4.54h86.76v1.52H-1.1z"/></g><path d="M678-1118v154H420V0H240v-964H20v-154h220v-149c0-194 155-293 318-293 85 0 141 18 168 30l-50 154c-19-6-47-17-97-17-111 0-159 58-159 166v109h258" id="ba"/><g id="V"><use transform="matrix(0.008680555555555556,0,0,0.008680555555555556,0,0)" xlink:href="#az"/><use transform="matrix(0.008680555555555556,0,0,0.008680555555555556,10.503472222222223,0)" xlink:href="#ay"/><use transform="matrix(0.008680555555555556,0,0,0.008680555555555556,21.163194444444446,0)" xlink:href="#aw"/><use transform="matrix(0.008680555555555556,0,0,0.008680555555555556,26.979166666666668,0)" xlink:href="#ax"/><use transform="matrix(0.008680555555555556,0,0,0.008680555555555556,31.28472222222222,0)" xlink:href="#ba"/><use transform="matrix(0.008680555555555556,0,0,0.008680555555555556,37.864583333333336,0)" xlink:href="#aK"/></g><use transform="matrix(0.010850694444444444,0,0,0.010850694444444444,0,0)" xlink:href="#aY" id="W"/><g id="X"><use transform="matrix(0.010850694444444444,0,0,0.010850694444444444,0,0)" xlink:href="#au"/><use transform="matrix(0.010850694444444444,0,0,0.010850694444444444,13.140190972222221,0)" xlink:href="#an"/><use transform="matrix(0.010850694444444444,0,0,0.010850694444444444,24.869791666666664,0)" xlink:href="#ao"/><use transform="matrix(0.010850694444444444,0,0,0.010850694444444444,37.82552083333333,0)" xlink:href="#ap"/></g><use transform="matrix(0.010850694444444444,0,0,0.010850694444444444,0,0)" xlink:href="#aY" id="Y"/><path d="M154 0v-137l495-537c165-179 249-281 249-418 0-156-121-253-280-253-170 0-278 110-278 278H158c0-264 200-443 465-443 266 0 455 183 455 416 0 161-73 288-336 568L416-179v12h687V0H154" id="bb"/><g id="Z"><use transform="matrix(0.010850694444444444,0,0,0.010850694444444444,0,0)" xlink:href="#au"/><use transform="matrix(0.010850694444444444,0,0,0.010850694444444444,13.140190972222221,0)" xlink:href="#an"/><use transform="matrix(0.010850694444444444,0,0,0.010850694444444444,24.869791666666664,0)" xlink:href="#ao"/><use transform="matrix(0.010850694444444444,0,0,0.010850694444444444,37.82552083333333,0)" xlink:href="#ap"/><use transform="matrix(0.010850694444444444,0,0,0.010850694444444444,46.191406249999986,0)" xlink:href="#bb"/></g><g id="aa"><use transform="matrix(0.010850694444444444,0,0,0.010850694444444444,0,0)" xlink:href="#aL"/><use transform="matrix(0.010850694444444444,0,0,0.010850694444444444,13.975694444444445,0)" xlink:href="#ao"/><use transform="matrix(0.010850694444444444,0,0,0.010850694444444444,26.529947916666664,0)" xlink:href="#aF"/><use transform="matrix(0.010850694444444444,0,0,0.010850694444444444,44.71571180555556,0)" xlink:href="#ar"/><use transform="matrix(0.010850694444444444,0,0,0.010850694444444444,57.19401041666667,0)" xlink:href="#ap"/><use transform="matrix(0.010850694444444444,0,0,0.010850694444444444,65.19097222222223,0)" xlink:href="#as"/></g><g id="ab"><use transform="matrix(0.010850694444444444,0,0,0.010850694444444444,0,0)" xlink:href="#ap"/><use transform="matrix(0.010850694444444444,0,0,0.010850694444444444,7.996961805555555,0)" xlink:href="#ao"/><use transform="matrix(0.010850694444444444,0,0,0.010850694444444444,20.55121527777778,0)" xlink:href="#aF"/><use transform="matrix(0.010850694444444444,0,0,0.010850694444444444,38.73697916666667,0)" xlink:href="#ar"/><use transform="matrix(0.010850694444444444,0,0,0.010850694444444444,51.215277777777786,0)" xlink:href="#ap"/><use transform="matrix(0.010850694444444444,0,0,0.010850694444444444,59.21223958333333,0)" xlink:href="#as"/><use transform="matrix(0.010850694444444444,0,0,0.010850694444444444,72.81901041666667,0)" xlink:href="#aB"/><use transform="matrix(0.010850694444444444,0,0,0.010850694444444444,83.70225694444446,0)" xlink:href="#ax"/><use transform="matrix(0.010850694444444444,0,0,0.010850694444444444,89.0842013888889,0)" xlink:href="#as"/><path d="M-1.1 4.54h104.9v1.52H-1.1z"/></g><g id="ac"><use transform="matrix(0.010850694444444444,0,0,0.010850694444444444,0,0)" xlink:href="#aw"/><use transform="matrix(0.010850694444444444,0,0,0.010850694444444444,7.703993055555555,0)" xlink:href="#aK"/><use transform="matrix(0.010850694444444444,0,0,0.010850694444444444,20.19314236111111,0)" xlink:href="#aE"/><use transform="matrix(0.010850694444444444,0,0,0.010850694444444444,33.79991319444444,0)" xlink:href="#ao"/></g><g id="ad"><use transform="matrix(0.010850694444444444,0,0,0.010850694444444444,0,0)" xlink:href="#aT"/><use transform="matrix(0.010850694444444444,0,0,0.010850694444444444,12.38064236111111,0)" xlink:href="#ar"/><use transform="matrix(0.010850694444444444,0,0,0.010850694444444444,24.85894097222222,0)" xlink:href="#aD"/><use transform="matrix(0.010850694444444444,0,0,0.010850694444444444,30.240885416666664,0)" xlink:href="#au"/><use transform="matrix(0.010850694444444444,0,0,0.010850694444444444,43.381076388888886,0)" xlink:href="#ao"/></g><path d="M158 0v-1490h180v865h22l478-493h223L593-638 1096 0H865L456-523 338-412V0H158" id="bc"/><g id="ae"><use transform="matrix(0.010850694444444444,0,0,0.010850694444444444,0,0)" xlink:href="#aw"/><use transform="matrix(0.010850694444444444,0,0,0.010850694444444444,7.052951388888888,0)" xlink:href="#ay"/><use transform="matrix(0.010850694444444444,0,0,0.010850694444444444,20.377604166666664,0)" xlink:href="#bc"/><use transform="matrix(0.010850694444444444,0,0,0.010850694444444444,32.07465277777778,0)" xlink:href="#ao"/><use transform="matrix(0.010850694444444444,0,0,0.010850694444444444,45.03038194444444,0)" xlink:href="#az"/></g><g id="af"><use transform="matrix(0.010850694444444444,0,0,0.010850694444444444,0,0)" xlink:href="#av"/><use transform="matrix(0.010850694444444444,0,0,0.010850694444444444,12.91232638888889,0)" xlink:href="#ar"/><use transform="matrix(0.010850694444444444,0,0,0.010850694444444444,25.390625,0)" xlink:href="#ap"/><use transform="matrix(0.010850694444444444,0,0,0.010850694444444444,33.38758680555556,0)" xlink:href="#as"/></g><g id="ag"><use transform="matrix(0.010850694444444444,0,0,0.010850694444444444,0,0)" xlink:href="#aR"/><use transform="matrix(0.010850694444444444,0,0,0.010850694444444444,21.89670138888889,0)" xlink:href="#ax"/><use transform="matrix(0.010850694444444444,0,0,0.010850694444444444,27.278645833333336,0)" xlink:href="#az"/><use transform="matrix(0.010850694444444444,0,0,0.010850694444444444,40.407986111111114,0)" xlink:href="#an"/></g><use transform="matrix(0.010850694444444444,0,0,0.010850694444444444,0,0)" xlink:href="#aM" id="ah"/><use transform="matrix(0.010850694444444444,0,0,0.010850694444444444,0,0)" xlink:href="#aC" id="ai"/><path d="M180 0v-1490h190v1322h690V0H180" id="bd"/><use transform="matrix(0.010850694444444444,0,0,0.010850694444444444,0,0)" xlink:href="#bd" id="aj"/><use transform="matrix(0.010850694444444444,0,0,0.010850694444444444,0,0)" xlink:href="#aZ" id="ak"/><use transform="matrix(0.010850694444444444,0,0,0.010850694444444444,0,0)" xlink:href="#az" id="al"/></defs></g></svg>